<svg xmlns="http://www.w3.org/2000/svg" width="158" height="54" viewBox="0 0 158 54">
  <g id="Group_25291" data-name="Group 25291" transform="translate(-151 -10)">
    <g id="Group_26786" data-name="Group 26786">
      <g id="Group_24567" data-name="Group 24567" transform="translate(157 10)">
        <g id="Group_24565" data-name="Group 24565" transform="translate(0 2.635)">
          <g id="Group_24563" data-name="Group 24563" transform="translate(0 0)">
            <g id="Group_24562" data-name="Group 24562">
              <g id="Group_24558" data-name="Group 24558" transform="translate(0 0.614)">
                <path id="Path_18751" data-name="Path 18751" d="M780.963-287.573a4.258,4.258,0,0,1-1.407-.193l-1.461-.52a1.736,1.736,0,0,0-.614-.134l-3.394-.1a.135.135,0,0,1-.112-.066.137.137,0,0,1,0-.13l.143-.288a.134.134,0,0,1,.116-.075l3.388-.092a7.648,7.648,0,0,0,1.385-.327l.956-.275a1.012,1.012,0,0,1,.468-.152,5.314,5.314,0,0,1,1.152-.145l16.544-.273-16.785-.311a.13.13,0,0,1-.031,0c-.183-.048-.392-.112-.62-.191a6.98,6.98,0,0,0-1.646-.511l-3.4-.094a.133.133,0,0,1-.112-.066.135.135,0,0,1,0-.131l.144-.282a.134.134,0,0,1,.116-.073l3.435-.1a6.636,6.636,0,0,0,1.637-.44,6.852,6.852,0,0,1,2.135-.455l11.516-.189-10.908-.155a2.239,2.239,0,0,1-.8-.148l-1.412-.51a9.519,9.519,0,0,0-2.269-.23l-1.926-.045a.133.133,0,0,1-.107-.058.138.138,0,0,1-.017-.121l.1-.276a.134.134,0,0,1,.122-.091l2.636-.094a12.288,12.288,0,0,0,1.354-.091l1.814-.51a4.515,4.515,0,0,1,1.262-.235l5.421-.238-4.484-.2a6.293,6.293,0,0,1-1.6-.383l-.894-.334a1.726,1.726,0,0,0-.7-.136l-3.35-.088a.135.135,0,0,1-.109-.062.135.135,0,0,1-.011-.126l.14-.333a.133.133,0,0,1,.121-.083l3.474-.051c.388-.087.981-.256,1.81-.516a5.085,5.085,0,0,1,1.6-.334l8.66-.286a.134.134,0,0,1,.114.064.137.137,0,0,1,0,.136l-1.4,2.6h11.688a.135.135,0,0,1,.115.065.136.136,0,0,1,0,.133l-1.461,2.788a.137.137,0,0,1-.08.066l-1.426,2.722a.134.134,0,0,1-.119.073h-.01a.136.136,0,0,1-.015.069l-1.313,2.553a.135.135,0,0,1-.12.073Zm5.981-11.444a3.891,3.891,0,0,1-1.712-.633,3.155,3.155,0,0,0-1.492-.5l-3.44-.047a.135.135,0,0,1-.107-.055.138.138,0,0,1-.02-.119l.1-.331a.136.136,0,0,1,.126-.1l3.483-.1a3.682,3.682,0,0,0,.766-.181l.849-.235a8.9,8.9,0,0,1,2.39-.428l12.22-.235-11.846-.18a2.533,2.533,0,0,1-.89-.208,8.694,8.694,0,0,0-2.165-.694l-3.395-.1a.136.136,0,0,1-.113-.067.136.136,0,0,1,0-.131l.187-.352a.134.134,0,0,1,.119-.072h2.967a8.641,8.641,0,0,0,2.057-.433,8.682,8.682,0,0,1,2.182-.444l10.923-.164-7.631-.1c-.432,0-1.043-.015-1.979-.051-.658-.031-1.105-.064-1.331-.1l-2.005-.671a10.42,10.42,0,0,0-1.8-.131l-2.02-.048a.136.136,0,0,1-.115-.069.136.136,0,0,1,0-.134l.19-.329a.135.135,0,0,1,.115-.067l3.387-.047a6.463,6.463,0,0,0,1.511-.4,7.987,7.987,0,0,1,2.01-.46l8.241-.328H811a.134.134,0,0,1,.115.065.134.134,0,0,1,0,.132l-1.459,2.789a.134.134,0,0,1-.083.067l-1.473,2.768a.136.136,0,0,1-.077.065l-1.427,2.774a.136.136,0,0,1-.12.073Zm4.467-9.078a2.348,2.348,0,0,1-.845-.155l-1.686-.564a4.6,4.6,0,0,0-.636-.186l-3.325-.044a.135.135,0,0,1-.113-.065.135.135,0,0,1-.005-.131l.14-.283a.135.135,0,0,1,.117-.075l3.486-.093a2.04,2.04,0,0,0,.572-.135,14.924,14.924,0,0,1,2.955-.716l6.325-.249h-4.389a5.112,5.112,0,0,1-1.693-.293l-1.743-.616a7.728,7.728,0,0,0-.921-.233l-3.173-.043a.135.135,0,0,1-.111-.061.139.139,0,0,1-.012-.126l.137-.333a.136.136,0,0,1,.123-.083l3.435-.045a3.433,3.433,0,0,0,.86-.179,27.385,27.385,0,0,1,2.976-.718l11.509-.187-10.774-.158a4.591,4.591,0,0,1-1.75-.385,5,5,0,0,0-1.592-.469l-3.3-.045a.135.135,0,0,1-.109-.059.135.135,0,0,1-.014-.124l.143-.378a.135.135,0,0,1,.124-.087l3.386-.049a3.019,3.019,0,0,0,.675-.134l2.209-.616a3.569,3.569,0,0,1,1.024-.146l18.989-.312-18.469-.221a7.763,7.763,0,0,1-2.208-.578,3.3,3.3,0,0,0-.759-.225l-3.488-.1a.135.135,0,0,1-.115-.071.136.136,0,0,1,0-.135l.236-.378a.134.134,0,0,1,.112-.063l2.683-.047a4.392,4.392,0,0,0,1.277-.138l1.986-.568a.135.135,0,0,1,.037-.005c.01,0,.131-.01,1.212-.142.289-.033,1.227-.05,2.787-.05h17.234a.134.134,0,0,1,.115.064.136.136,0,0,1,.006.131l-1.226,2.462a.134.134,0,0,1-.083.069.139.139,0,0,1,.029.034.136.136,0,0,1,0,.134l-1.507,2.842a.134.134,0,0,1-.078.065l-1.424,2.724a.134.134,0,0,1-.119.072H800.725a.138.138,0,0,1-.007.112l-1.461,2.794a.136.136,0,0,1-.119.073Z" transform="translate(-773.821 319.523)" fill="#004b98"/>
                <path id="Path_18752" data-name="Path 18752" d="M816.569-319.617l-1.226,2.462-19.771-.236a7.7,7.7,0,0,1-2.164-.57,3.711,3.711,0,0,0-.8-.232l-3.484-.1.235-.378,2.683-.046a4.456,4.456,0,0,0,1.318-.145l1.98-.566c.033,0,.437-.046,1.227-.142.276-.032,1.2-.049,2.771-.049h17.233m-1.274,2.7-1.508,2.842-19.53-.287a4.441,4.441,0,0,1-1.7-.375,5.389,5.389,0,0,0-1.644-.479l-3.3-.045.143-.377,3.386-.049a3.329,3.329,0,0,0,.708-.139l2.21-.616a3.421,3.421,0,0,1,.988-.142l20.244-.333m-1.552,2.842-1.458,2.79H793.64a4.972,4.972,0,0,1-1.648-.286l-1.743-.616a8.067,8.067,0,0,0-.941-.238l-3.2-.045.138-.333,3.434-.045a3.484,3.484,0,0,0,.9-.185,27.384,27.384,0,0,1,2.964-.715l20.2-.326m-13.509,2.973-1.461,2.794-7.722-.281a2.224,2.224,0,0,1-.8-.146l-1.692-.566a4.762,4.762,0,0,0-.662-.193l-3.339-.045.14-.283,3.485-.093a2.308,2.308,0,0,0,.612-.142,14.792,14.792,0,0,1,2.92-.709l8.521-.335m10.4,3.126-1.459,2.788-17.043-.234c-.471,0-1.131-.019-1.977-.05-.659-.031-1.1-.064-1.317-.094l-1.982-.665a11.037,11.037,0,0,0-1.838-.137L783-306.421l.19-.329,3.387-.047a6.476,6.476,0,0,0,1.553-.4,7.858,7.858,0,0,1,1.975-.453l8.238-.327h12.292m-1.506,2.788-1.508,2.834-19.728-.3a2.407,2.407,0,0,1-.843-.2,9.349,9.349,0,0,0-2.214-.7l-3.391-.1.187-.352H784.6a8.691,8.691,0,0,0,2.1-.439,8.677,8.677,0,0,1,2.144-.438l20.29-.305m-1.553,2.834-1.461,2.841H786.578a3.811,3.811,0,0,1-1.645-.615,3.3,3.3,0,0,0-1.558-.521l-3.438-.047.1-.331,3.483-.1a4.187,4.187,0,0,0,.8-.187l.846-.233a8.74,8.74,0,0,1,2.355-.424l20.058-.386m-13.516,3.217-1.507,2.8-7.622-.336a6.173,6.173,0,0,1-1.558-.375l-.89-.333a1.856,1.856,0,0,0-.752-.145l-3.346-.089.139-.332,3.488-.051c.406-.09,1.014-.265,1.833-.522a4.953,4.953,0,0,1,1.556-.328l8.659-.285m10.406,2.8-1.462,2.788-19.772-.281a2.119,2.119,0,0,1-.75-.139l-1.414-.512a9.519,9.519,0,0,0-2.311-.237l-1.926-.045.094-.276,2.636-.094a12.321,12.321,0,0,0,1.365-.092l1.834-.514a4.385,4.385,0,0,1,1.227-.23l8.428-.37h12.051m-1.507,2.788-1.459,2.789-20.528-.381c-.128-.033-.328-.09-.609-.188a7.493,7.493,0,0,0-1.69-.519l-3.4-.094.144-.282,3.436-.1a7.181,7.181,0,0,0,1.676-.447,6.691,6.691,0,0,1,2.092-.448l20.337-.333m-1.6,2.93-1.313,2.553H780.6a4.109,4.109,0,0,1-1.362-.185l-1.462-.52a1.847,1.847,0,0,0-.658-.143l-3.391-.1.143-.288,3.388-.092a7.618,7.618,0,0,0,1.419-.332l.984-.283a.819.819,0,0,1,.422-.14,5.219,5.219,0,0,1,1.133-.143l20.143-.333m15.212-29.263H799.336c-1.566,0-2.508.017-2.8.051-1.057.128-1.192.14-1.207.141a.2.2,0,0,0-.063.01l-1.979.566a4.053,4.053,0,0,1-1.245.135l-2.688.046a.268.268,0,0,0-.223.127l-.236.378a.271.271,0,0,0-.009.271.269.269,0,0,0,.23.143l3.484.1a3.455,3.455,0,0,1,.722.217,7.728,7.728,0,0,0,2.254.586l8.946.107-9.473.156a3.7,3.7,0,0,0-1.061.153l-2.205.615a2.918,2.918,0,0,1-.636.129l-3.39.049a.269.269,0,0,0-.248.174l-.143.377a.272.272,0,0,0,.029.248.27.27,0,0,0,.219.119l3.3.046a4.9,4.9,0,0,1,1.546.459,4.729,4.729,0,0,0,1.8.394l1.978.029-2.693.043a.267.267,0,0,0-.048.005,27.5,27.5,0,0,0-2.995.723,3.282,3.282,0,0,1-.815.172l-3.438.045a.269.269,0,0,0-.245.167l-.137.332a.275.275,0,0,0,.024.252.27.27,0,0,0,.221.122l3.173.045a7.731,7.731,0,0,1,.888.226l1.733.613a5.421,5.421,0,0,0,.923.236l-1.123.044a14.975,14.975,0,0,0-2.99.721,1.989,1.989,0,0,1-.531.13l-3.492.093a.269.269,0,0,0-.234.15l-.14.283a.271.271,0,0,0,.011.261.27.27,0,0,0,.226.129l3.31.044a4.221,4.221,0,0,1,.593.173l.017.006,1.693.566a2.47,2.47,0,0,0,.887.16l4.766.174-5.721.227a8.108,8.108,0,0,0-2.052.468,6,6,0,0,1-1.465.387l-3.391.048a.269.269,0,0,0-.229.134l-.19.329a.272.272,0,0,0,0,.268.267.267,0,0,0,.228.138l2.021.048a10.155,10.155,0,0,1,1.77.127l1.971.662a.281.281,0,0,0,.048.011c.23.033.681.065,1.342.1l.595.021-1.9.029a8.818,8.818,0,0,0-2.216.45,8.535,8.535,0,0,1-2.02.427h-2.967a.269.269,0,0,0-.237.143l-.187.352a.271.271,0,0,0,0,.263.268.268,0,0,0,.225.134l3.391.1a8.44,8.44,0,0,1,2.123.685,2.658,2.658,0,0,0,.941.217l3.989.061-4.37.084a9.026,9.026,0,0,0-2.425.434l-.842.232a3.864,3.864,0,0,1-.73.177l-3.49.1a.269.269,0,0,0-.25.192l-.1.331a.272.272,0,0,0,.041.238.269.269,0,0,0,.214.11l3.438.047a3.075,3.075,0,0,1,1.43.485,4.009,4.009,0,0,0,1.777.651h2.5l-3.684.122h0a5.221,5.221,0,0,0-1.633.342c-.808.254-1.393.421-1.778.508l-3.46.051a.268.268,0,0,0-.244.165l-.14.332a.272.272,0,0,0,.022.252.269.269,0,0,0,.219.123l3.346.088a1.6,1.6,0,0,1,.652.123l.013.005.89.334a6.446,6.446,0,0,0,1.634.391l1.42.063-2.356.1h0a4.646,4.646,0,0,0-1.292.241l-1.807.506a11.924,11.924,0,0,1-1.313.088l-2.645.094a.269.269,0,0,0-.245.182l-.095.275a.273.273,0,0,0,.033.243.27.27,0,0,0,.215.116l1.927.045a9.479,9.479,0,0,1,2.226.221l1.413.512a2.381,2.381,0,0,0,.842.155l2.067.029-2.682.044a6.892,6.892,0,0,0-2.176.463,6.557,6.557,0,0,1-1.588.432l-3.444.1a.267.267,0,0,0-.231.147l-.144.282a.271.271,0,0,0,.007.261.269.269,0,0,0,.224.132l3.4.094a6.7,6.7,0,0,1,1.6.5q.36.125.637.2a.253.253,0,0,0,.062.009l9.075.168-8.836.146a5.478,5.478,0,0,0-1.177.147,1.172,1.172,0,0,0-.5.161l-.933.268a7.256,7.256,0,0,1-1.344.321l-3.4.092a.27.27,0,0,0-.234.149l-.143.288a.27.27,0,0,0,.01.26.269.269,0,0,0,.223.131l3.391.1a1.6,1.6,0,0,1,.569.124l1.469.523a4.39,4.39,0,0,0,1.452.2h19.446a.267.267,0,0,0,.238-.146L801.6-290.5l.007-.015a.271.271,0,0,0,.137-.125l1.4-2.682a.272.272,0,0,0,.1-.107l1.462-2.788a.272.272,0,0,0-.007-.265.27.27,0,0,0-.231-.131H793.007l1.292-2.4a.272.272,0,0,0,.011-.235h11.807a.268.268,0,0,0,.239-.146l1.406-2.734a.273.273,0,0,0,.1-.1l1.451-2.727a.266.266,0,0,0,.1-.109l1.459-2.789a.273.273,0,0,0-.007-.266.271.271,0,0,0-.231-.13H799.045l1.428-2.731a.27.27,0,0,0,.016-.039h11.8a.268.268,0,0,0,.238-.145l1.4-2.684a.267.267,0,0,0,.1-.1l1.508-2.842a.275.275,0,0,0,.023-.195.29.29,0,0,0,.028-.046l1.227-2.462a.27.27,0,0,0-.012-.263.268.268,0,0,0-.229-.128Zm0,.541h0Zm-1.274,2.7h0Zm-1.552,2.842h0Zm-13.509,2.973h0Zm10.4,3.126h0Zm-1.506,2.788h0Zm-1.553,2.834h0Zm-13.516,3.217h0Zm10.406,2.8h0Zm-1.507,2.788h0Zm-1.6,2.93h0Z" transform="translate(-773.456 319.888)" fill="#fff"/>
              </g>
              <g id="Group_24559" data-name="Group 24559" transform="translate(33.113 0.046)">
                <path id="Path_18753" data-name="Path 18753" d="M915.656-288.487a30.694,30.694,0,0,1-4.162-.282c-1.056-.156-2.78-.529-5.274-1.139h-.168a.137.137,0,0,1-.056-.012.345.345,0,0,0-.087-.032l-3.44-.1a.133.133,0,0,1-.111-.065.134.134,0,0,1-.006-.13l.141-.288a.136.136,0,0,1,.117-.075l3.247-.092c.183-.031.416-.063.7-.094l1.717-.516a5.469,5.469,0,0,1,1.641-.288l8.5-.21-12.6-.227a3.311,3.311,0,0,1-1.129-.2l-1.314-.474a5.946,5.946,0,0,0-1.514-.181h0c-.116,0-.454-.013-1.038-.049l-1.641-.045a.134.134,0,0,1-.114-.068.134.134,0,0,1,0-.133l.186-.331a.133.133,0,0,1,.116-.069h2.169a7.3,7.3,0,0,0,1.891-.183l1.787-.522a4.005,4.005,0,0,1,1.168-.2l9.676-.191-11.513-.22a2.59,2.59,0,0,1-.946-.16l-1.6-.6a3.873,3.873,0,0,0-1.319-.14L898-295.84a.132.132,0,0,1-.108-.058.136.136,0,0,1-.016-.123l.141-.4a.136.136,0,0,1,.124-.089l3.108-.051a1.777,1.777,0,0,0,.4-.05.114.114,0,0,1,.03,0h.262l2.192-.709a3.546,3.546,0,0,1,1.122-.212l6.476-.156-7.326-.163a4.375,4.375,0,0,1-1.548-.316c-.589-.224-1.152-.415-1.721-.586l-3.512-.093a.132.132,0,0,1-.109-.062.133.133,0,0,1-.01-.127l.142-.329a.133.133,0,0,1,.121-.082l3.437-.049a.586.586,0,0,0,.191-.04l1.478-.38.652-.186a4.47,4.47,0,0,1,1.312-.241l5.4-.168-5.69-.227a8.578,8.578,0,0,1-2.353-.673,1.558,1.558,0,0,0-.607-.131l-3.539-.144a.133.133,0,0,1-.11-.067.133.133,0,0,1,0-.129l.143-.281a.135.135,0,0,1,.115-.074l3.3-.1c.182-.03.436-.063.738-.1l1.764-.561a6.392,6.392,0,0,1,1.257-.191l5.558-.205-5.365-.235a10.327,10.327,0,0,1-2.49-.716,1.528,1.528,0,0,0-.522-.133l-3.484-.1a.133.133,0,0,1-.112-.066.136.136,0,0,1-.005-.13l.141-.283a.136.136,0,0,1,.116-.075l3.563-.093.312-.092,1.646-.472a6.455,6.455,0,0,1,1.78-.336l9.322-.238a.135.135,0,0,1,.117.07.136.136,0,0,1-.005.14,16.3,16.3,0,0,0-1.537,2.808,8.122,8.122,0,0,0-.277,1.612,9.95,9.95,0,0,0,.124,1.1.134.134,0,0,1,.1.082,4.783,4.783,0,0,0,3.118,2.718l.009,0,.422-.01a.142.142,0,0,1,.035,0,7.514,7.514,0,0,0,1.943.229,25.858,25.858,0,0,0,5.055-.518.126.126,0,0,1,.027,0,.135.135,0,0,1,.108.055.135.135,0,0,1,.01.145l-1.786,3.311a.135.135,0,0,1-.085.067l-1.421,2.724a.134.134,0,0,1-.081.067.14.14,0,0,1-.016.072l-1.367,2.6a.133.133,0,0,1-.119.072,1.394,1.394,0,0,0-.337.069,8.011,8.011,0,0,1-.86.173l-1.084.185C917.043-288.52,916.327-288.487,915.656-288.487ZM906.563-306.7a7.909,7.909,0,0,1-2.168-.673,4.084,4.084,0,0,0-.953-.223l-3.235-.1a.136.136,0,0,1-.115-.073.139.139,0,0,1,.007-.137l.187-.285a.135.135,0,0,1,.11-.06l2.732-.044a4.873,4.873,0,0,0,1.421-.184l1.605-.476a3.853,3.853,0,0,1,1.212-.191l8.962-.268-6.657-.174a12,12,0,0,1-3.619-.764,1.032,1.032,0,0,0-.424-.131l-3.585-.1a.135.135,0,0,1-.114-.069.134.134,0,0,1,0-.133l.188-.331a.134.134,0,0,1,.114-.068l2.263-.046a10.241,10.241,0,0,0,2.04-.233l1.549-.423a5.543,5.543,0,0,1,1.591-.241l8.6-.135-3.611-.084q-1.322-.048-2.5-.1c-.883-.067-1.465-.127-1.737-.179a13.687,13.687,0,0,1-1.837-.627,1.689,1.689,0,0,0-.518-.141l-3.488-.1a.134.134,0,0,1-.11-.065.137.137,0,0,1-.007-.129l.189-.4a.133.133,0,0,1,.121-.077h3.393a1.781,1.781,0,0,0,.7-.174,12.612,12.612,0,0,1,3.156-.675l17.2-.262-14.089-.176a5.206,5.206,0,0,1-1.786-.246l-1.415-.521a6.342,6.342,0,0,0-1.554-.088h-2.493a.132.132,0,0,1-.114-.064.132.132,0,0,1-.006-.131l.232-.472a.135.135,0,0,1,.119-.075l3.3-.047a1.962,1.962,0,0,0,.529-.089l2.214-.62a4.106,4.106,0,0,1,1.122-.138L931.4-318.2l-11.461-.175a3.238,3.238,0,0,1-1.127-.2l-1.487-.512c-.055-.006-.2-.033-.71-.14a4.914,4.914,0,0,0-.819-.045l-2.735.048a.135.135,0,0,1-.113-.061.137.137,0,0,1-.01-.13l.194-.43a.135.135,0,0,1,.119-.079l3.482-.092a.768.768,0,0,0,.146-.043.138.138,0,0,1,.046-.008h.236l5.249-.9a38.618,38.618,0,0,1,6.475-.523,33.114,33.114,0,0,1,7.752.9.134.134,0,0,1,.091.076.137.137,0,0,1,0,.12l-1.178,2.176a.125.125,0,0,1-.034.041.132.132,0,0,1-.01.1l-1.461,2.79a.137.137,0,0,1-.037.044.138.138,0,0,1-.012.1l-1.744,3.218a.134.134,0,0,1-.118.071.136.136,0,0,1-.039-.005,12.947,12.947,0,0,0-3.772-.566,13.955,13.955,0,0,0-2.8.332.121.121,0,0,1-.028,0l-.691-.016a.137.137,0,0,1-.033.013,15.926,15.926,0,0,0-5.929,2.718.136.136,0,0,1-.081.027H918.7a.132.132,0,0,1-.048.11,18.946,18.946,0,0,0-2.475,2.49l-.284.336a.133.133,0,0,1-.1.048Z" transform="translate(-897.352 321.623)" fill="#f8811f"/>
                <path id="Path_18754" data-name="Path 18754" d="M928.519-321.718a32.851,32.851,0,0,1,7.72.9l-1.178,2.177-15.487-.237a3.1,3.1,0,0,1-1.082-.191l-1.5-.519c-.036,0-.269-.047-.71-.139a5.052,5.052,0,0,0-.848-.048l-2.734.048.193-.429,3.481-.092a.735.735,0,0,0,.189-.051h.235l5.271-.9a38.384,38.384,0,0,1,6.453-.52m6.5,3.219h0m0,0-1.462,2.79-18.783-.236a5.062,5.062,0,0,1-1.739-.237l-1.416-.521a7.008,7.008,0,0,0-1.6-.1H907.52l.234-.471,3.3-.047a2.1,2.1,0,0,0,.565-.094l2.213-.62a3.957,3.957,0,0,1,1.085-.133l20.1-.334m-1.51,2.93-1.743,3.218a13.064,13.064,0,0,0-3.812-.572,13.982,13.982,0,0,0-2.822.335L914.3-312.84c-.878-.033-1.711-.063-2.5-.1-.877-.066-1.455-.126-1.717-.177a13.619,13.619,0,0,1-1.815-.621,1.775,1.775,0,0,0-.566-.15l-3.484-.1.188-.4H907.8a1.9,1.9,0,0,0,.752-.185,12.413,12.413,0,0,1,3.1-.664l21.847-.333m-9.133,2.982a15.985,15.985,0,0,0-5.978,2.742l-9.085-.237a11.827,11.827,0,0,1-3.578-.756,1.1,1.1,0,0,0-.469-.139l-3.582-.1.188-.331,2.262-.045a10.4,10.4,0,0,0,2.072-.237l1.551-.424a5.457,5.457,0,0,1,1.556-.237l15.063-.236m-6.167,2.881a18.957,18.957,0,0,0-2.493,2.508l-.283.335L906.2-307.2a7.925,7.925,0,0,1-2.123-.664,4.184,4.184,0,0,0-.984-.232l-3.249-.1.186-.285,2.732-.044a4.978,4.978,0,0,0,1.458-.19l1.6-.476A3.724,3.724,0,0,1,907-309.37l11.2-.335m-2.871,3.123a16.284,16.284,0,0,0-1.553,2.841l-8.708-.382a10.37,10.37,0,0,1-2.45-.708,1.7,1.7,0,0,0-.568-.142l-3.481-.1.142-.283,3.578-.094.329-.1,1.646-.472a6.335,6.335,0,0,1,1.743-.331l9.322-.238m-1.553,2.841a8.325,8.325,0,0,0-.283,1.653,11,11,0,0,0,.143,1.228l-9.461-.376a8.588,8.588,0,0,1-2.311-.664,1.678,1.678,0,0,0-.655-.14l-3.533-.144.143-.28,3.295-.1c.186-.03.435-.063.75-.1l1.789-.566a6.26,6.26,0,0,1,1.225-.186l8.9-.329m-.047,2.881a4.891,4.891,0,0,0,3.2,2.8l-12.9-.287a4.232,4.232,0,0,1-1.5-.307c-.537-.2-1.119-.406-1.748-.594l-3.529-.093.142-.329,3.437-.049a.7.7,0,0,0,.235-.049l1.464-.376.654-.188a4.338,4.338,0,0,1,1.276-.236l9.27-.288m10.733,2.508h0m0,0-1.786,3.311-18.5-.352a2.443,2.443,0,0,1-.9-.151l-1.6-.6a3.945,3.945,0,0,0-1.367-.149l-2.682-.051.142-.4,3.107-.051a1.879,1.879,0,0,0,.424-.054h.284l2.213-.716a3.442,3.442,0,0,1,1.081-.2l12.524-.3a7.646,7.646,0,0,0,1.979.233,25.845,25.845,0,0,0,5.081-.521m-1.836,3.311-1.456,2.791-15.726-.284a3.175,3.175,0,0,1-1.086-.19l-1.315-.474a6.086,6.086,0,0,0-1.553-.189c-.126,0-.471-.014-1.036-.048l-1.646-.046.185-.331h2.168a7.389,7.389,0,0,0,1.928-.188l1.787-.522a3.872,3.872,0,0,1,1.13-.19l16.619-.328m-1.553,2.931-1.367,2.6a1.5,1.5,0,0,0-.374.074,8.134,8.134,0,0,1-.845.169l-1.085.185q-1.129.1-2.117.095a30.375,30.375,0,0,1-4.143-.28q-1.6-.237-5.276-1.14h-.185a.385.385,0,0,0-.141-.045l-3.438-.095.141-.288,3.247-.092c.192-.031.423-.063.709-.094l1.741-.521a5.329,5.329,0,0,1,1.6-.283l11.532-.285m7.441-29.878a38.767,38.767,0,0,0-6.5.524l-5.249.895h-.213a.267.267,0,0,0-.091.016.991.991,0,0,1-.114.035l-3.473.091a.27.27,0,0,0-.239.159l-.192.43a.272.272,0,0,0,.019.26.27.27,0,0,0,.226.122h0l2.735-.048a4.738,4.738,0,0,1,.792.044c.467.1.629.129.7.139l1.475.509a3.374,3.374,0,0,0,1.17.205l3,.046-7.664.127h0a4.214,4.214,0,0,0-1.153.144l-2.212.619a1.836,1.836,0,0,1-.493.084l-3.3.047a.267.267,0,0,0-.237.15l-.234.471a.274.274,0,0,0,.012.263.269.269,0,0,0,.228.128h2.493a6.375,6.375,0,0,1,1.5.078l1.423.523a5.329,5.329,0,0,0,1.832.253l4.356.054-7.473.114a12.5,12.5,0,0,0-3.177.676l-.03.011a1.653,1.653,0,0,1-.643.163h-3.393a.269.269,0,0,0-.243.154l-.188.4a.27.27,0,0,0,.014.257.265.265,0,0,0,.221.129l3.483.1a1.472,1.472,0,0,1,.478.131,13.459,13.459,0,0,0,1.864.635c.275.053.862.114,1.745.18l.158.007-2.638.042a5.681,5.681,0,0,0-1.627.247l-1.546.422a10.174,10.174,0,0,1-2.01.228l-2.259.046a.271.271,0,0,0-.228.136l-.187.331a.273.273,0,0,0,0,.267.268.268,0,0,0,.227.138l3.581.1a.83.83,0,0,1,.357.111l.03.013a12.124,12.124,0,0,0,3.661.771l1.836.048-4.145.124h0a3.979,3.979,0,0,0-1.248.2l-1.6.473a4.746,4.746,0,0,1-1.382.179l-2.736.044a.268.268,0,0,0-.221.121l-.187.285a.273.273,0,0,0-.014.273.268.268,0,0,0,.231.146l3.234.1a3.9,3.9,0,0,1,.9.211,6.988,6.988,0,0,0,2.228.685l4.979.181-5.176.132h0a6.6,6.6,0,0,0-1.815.343l-1.64.47-.3.088-3.545.093a.267.267,0,0,0-.233.15l-.142.283a.272.272,0,0,0,.01.26.269.269,0,0,0,.223.131l3.481.1a1.4,1.4,0,0,1,.478.123,9.006,9.006,0,0,0,2.547.727l2.013.088-2.214.082a6.558,6.558,0,0,0-1.283.194l-1.777.562c-.284.032-.526.063-.718.094l-3.279.1a.269.269,0,0,0-.232.147l-.142.281a.27.27,0,0,0,.007.259.269.269,0,0,0,.221.134l3.533.144a1.425,1.425,0,0,1,.561.119,8.663,8.663,0,0,0,2.416.685l1.869.074-1.593.049h0a4.613,4.613,0,0,0-1.346.248l-.648.186-1.457.374-.027.009a.444.444,0,0,1-.141.032l-3.441.049a.269.269,0,0,0-.243.163l-.142.329a.272.272,0,0,0,.02.253.27.27,0,0,0,.22.125l3.493.093c.563.169,1.118.358,1.695.577a4.5,4.5,0,0,0,1.6.324l1.5.034-.66.016h0a3.677,3.677,0,0,0-1.159.219l-2.17.7H901.3a.264.264,0,0,0-.06.007,1.648,1.648,0,0,1-.364.047l-3.111.051a.27.27,0,0,0-.249.179l-.142.4a.27.27,0,0,0,.032.245.268.268,0,0,0,.216.117l2.682.051a3.6,3.6,0,0,1,1.26.125l.018.007,1.6.6a2.708,2.708,0,0,0,.993.167l4.545.087-2.717.054h0a4.124,4.124,0,0,0-1.2.2l-1.783.521a7.191,7.191,0,0,1-1.854.178H899a.27.27,0,0,0-.234.138l-.186.331a.272.272,0,0,0,0,.266.269.269,0,0,0,.227.137l1.647.046c.493.031.887.049,1.043.049a5.966,5.966,0,0,1,1.459.172l1.318.475a3.439,3.439,0,0,0,1.177.206l6.282.113-2.191.054h0a5.608,5.608,0,0,0-1.677.3l-1.713.512c-.261.029-.484.059-.68.091l-3.229.091a.267.267,0,0,0-.234.151l-.141.288a.272.272,0,0,0,.01.259.269.269,0,0,0,.223.131l3.426.095c.008,0,.023.009.049.021a.266.266,0,0,0,.112.025h.152c2.491.609,4.214.981,5.269,1.137a30.829,30.829,0,0,0,4.182.283c.676,0,1.4-.032,2.141-.1l.022,0,1.085-.185a7.647,7.647,0,0,0,.878-.177,1.225,1.225,0,0,1,.3-.062.268.268,0,0,0,.238-.144l1.367-2.6a.25.25,0,0,0,.019-.048.265.265,0,0,0,.078-.091l1.4-2.68a.279.279,0,0,0,.107-.108l1.779-3.3a.273.273,0,0,0,.041-.143.27.27,0,0,0-.268-.27h-.018a.276.276,0,0,0-.042.006,25.673,25.673,0,0,1-5.024.514,7.4,7.4,0,0,1-1.909-.224.268.268,0,0,0-.07-.009H917.4l-.393.01a4.651,4.651,0,0,1-3.024-2.637.267.267,0,0,0-.105-.126,8.662,8.662,0,0,1-.111-1,7.654,7.654,0,0,1,.271-1.571,16.146,16.146,0,0,1,1.521-2.774.273.273,0,0,0,.036-.216.281.281,0,0,0,.04-.039l.283-.335a18.83,18.83,0,0,1,2.459-2.474.288.288,0,0,0,.067-.082.275.275,0,0,0,.113-.049,15.79,15.79,0,0,1,5.879-2.7l.028-.008.659.015h.006a.267.267,0,0,0,.055-.005,13.789,13.789,0,0,1,2.767-.33,12.822,12.822,0,0,1,3.734.56.261.261,0,0,0,.078.012.269.269,0,0,0,.236-.141l1.744-3.218a.284.284,0,0,0,.032-.115c.006-.009.011-.018.017-.028l1.455-2.776a.271.271,0,0,0,.039-.132l.013-.021,1.177-2.177a.272.272,0,0,0,.01-.239.269.269,0,0,0-.184-.153,33.241,33.241,0,0,0-7.782-.908Zm6.5,3.76h0Zm-1.51,2.93h0Zm-9.133,2.981h0Zm-6.167,2.882h0Zm-2.871,3.123h0Zm9.133,8.23h0Zm-1.836,3.311h0Zm-1.553,2.931h0Z" transform="translate(-896.986 321.988)" fill="#fff"/>
              </g>
              <g id="Group_24560" data-name="Group 24560" transform="translate(61.335 0.614)">
                <path id="Path_18755" data-name="Path 18755" d="M1019.016-286.955a29.359,29.359,0,0,1-8.043-.906l-1.6-.471a1.7,1.7,0,0,0-.479-.088l-3.208-.1a.135.135,0,0,1-.111-.065.135.135,0,0,1-.005-.129l.138-.288a.136.136,0,0,1,.12-.076l3.49-.044a1.116,1.116,0,0,1,.3-.092l1.6-.425.416-.139a4.168,4.168,0,0,1,1.409-.246l9.577-.2-12.589-.141-.235-.034c-.306-.046-.549-.082-.728-.107l-1.812-.623a3.884,3.884,0,0,0-.807-.085l-3.065-.1a.136.136,0,0,1-.111-.067.136.136,0,0,1,0-.131l.143-.278a.134.134,0,0,1,.116-.073l2.542-.053a5.488,5.488,0,0,0,1.657-.226l1.793-.526a6.156,6.156,0,0,1,1.06-.188l21.763-.316-22.74-.22a4.253,4.253,0,0,1-1.6-.345c-.424-.15-.986-.323-1.665-.512l-3.37-.044a.135.135,0,0,1-.115-.068.138.138,0,0,1,0-.134l.186-.331a.136.136,0,0,1,.114-.069l3.487-.093a11,11,0,0,0,1.889-.51,6.42,6.42,0,0,1,1.83-.391l8.458-.12-8.789-.411a6.553,6.553,0,0,1-2.07-.53,2.342,2.342,0,0,0-.7-.231l-3.536-.092a.135.135,0,0,1-.112-.065.137.137,0,0,1-.005-.13l.141-.285a.135.135,0,0,1,.115-.075l3.481-.139c.079-.008.67-.166,1.757-.47a9.319,9.319,0,0,1,2.1-.378l4.349-.19-4.392-.162a17.824,17.824,0,0,1-2.349-.731c-.1-.023-.234-.063-.444-.133l-3.559-.1a.134.134,0,0,1-.114-.069.134.134,0,0,1,0-.133l.189-.338a.134.134,0,0,1,.115-.069l3.435-.049a1.246,1.246,0,0,0,.334-.09,30.826,30.826,0,0,1,3.172-.821l5.185-.207-3.847-.16a9.111,9.111,0,0,1-2.157-.515,6.965,6.965,0,0,0-2.165-.452l-2.6-.047a.134.134,0,0,1-.112-.064.135.135,0,0,1-.007-.129l.142-.3a.133.133,0,0,1,.118-.078l2.353-.048a7.757,7.757,0,0,0,1.712-.2l1.688-.551a3.836,3.836,0,0,1,1.314-.258l4.8-.175-3.958-.151a6.023,6.023,0,0,1-.871-.094L1012-305.66l-.589-.186a.607.607,0,0,1-.192-.048l-3.313-.046a.134.134,0,0,1-.108-.056.136.136,0,0,1-.019-.12l.091-.292a.136.136,0,0,1,.125-.095l3.528-.1c.415-.1,1.058-.3,1.686-.5a7.822,7.822,0,0,1,1.889-.417l5.06-.2-4.35-.174a4.147,4.147,0,0,1-1.418-.418,5.081,5.081,0,0,0-1.591-.5l-3.388-.051a.135.135,0,0,1-.114-.066.136.136,0,0,1,0-.132l.186-.358a.134.134,0,0,1,.113-.073l3.531-.153a1.723,1.723,0,0,0,.592-.146c.261-.1.689-.237,1.351-.439a7.992,7.992,0,0,1,1.678-.341l4.793-.179-3.892-.151a8.8,8.8,0,0,1-2.349-.645,3.822,3.822,0,0,0-.99-.181l-3.351-.1a.134.134,0,0,1-.111-.066.136.136,0,0,1-.005-.129l.191-.387a.133.133,0,0,1,.118-.075l3.377-.052c.573-.13,1.262-.326,2.046-.582a4.2,4.2,0,0,1,1.358-.3l5.54-.251-3.94-.165a7.125,7.125,0,0,1-2.883-.658,2,2,0,0,0-.693-.238l-3.532-.049a.136.136,0,0,1-.116-.069.137.137,0,0,1,0-.135l.237-.4a.134.134,0,0,1,.111-.066l3.483-.1a11.508,11.508,0,0,0,1.983-.538,4.82,4.82,0,0,1,1.412-.31l5.022-.2-3.193-.113a7.81,7.81,0,0,1-2.346-.444,7.7,7.7,0,0,0-1.6-.475l-3.441-.044a.135.135,0,0,1-.114-.064.137.137,0,0,1-.006-.13l.186-.385a.134.134,0,0,1,.118-.076l2.217-.05a16.968,16.968,0,0,0,2.192-.238l1.633-.433a8.407,8.407,0,0,1,1.824-.342h7.439a.134.134,0,0,1,.114.063.133.133,0,0,1,.007.131l-1.272,2.651a.134.134,0,0,1-.121.076h-.013l-1.467,2.858a.136.136,0,0,1-.081.067l-1.374,2.859a.136.136,0,0,1-.122.077h-.011l-1.423,2.955a.133.133,0,0,1-.121.076h-.012l-1.422,2.763a.136.136,0,0,1-.12.073h-.008l-1.426,2.907a.137.137,0,0,1-.122.076h-.009l-1.421,2.809a.134.134,0,0,1-.067.063,4.036,4.036,0,0,0-.249,1.059c0,.635.481,1.182,1.429,1.626a.135.135,0,0,1,.074.155.11.11,0,0,1-.008.023l.158,0h.143a.117.117,0,0,1,.031,0l.989.236a3.814,3.814,0,0,0,.817.048,9.136,9.136,0,0,0,2.273-.328.14.14,0,0,1,.031,0l8.2-.107-4.626-.143a3.969,3.969,0,0,1-1.6-.392,4.924,4.924,0,0,0-1.637-.509l-3.44-.047a.134.134,0,0,1-.115-.068.133.133,0,0,1,0-.134l.186-.328a.136.136,0,0,1,.113-.068l3.438-.1a6.282,6.282,0,0,0,1.707-.37,8.724,8.724,0,0,1,1.817-.432l6.924-.308-5.692-.18a5.3,5.3,0,0,1-1.157-.146l-1.8-.618a3.4,3.4,0,0,0-1.368-.137l-2.5-.047a.133.133,0,0,1-.117-.075.133.133,0,0,1,.011-.139l.237-.331a.133.133,0,0,1,.107-.056l3.339-.048a7.494,7.494,0,0,0,1.609-.394,12.319,12.319,0,0,1,2-.5l7.1-.24-6.334-.2a.137.137,0,0,1-.057-.015.275.275,0,0,0-.13-.034.123.123,0,0,1-.029,0l-.655-.144-1.283-.427-.657-.189a.114.114,0,0,1-.03-.013.231.231,0,0,0-.123-.028l-3.39-.1a.134.134,0,0,1-.109-.062.136.136,0,0,1-.011-.125l.136-.327a.136.136,0,0,1,.125-.083l1.984.048c.1,0,.206.005.3.005a5.673,5.673,0,0,0,1.723-.24l1.554-.47a6.741,6.741,0,0,1,1.4-.242l5.138-.23-3.4-.117a6.745,6.745,0,0,1-1.776-.241l-1.7-.57a1.514,1.514,0,0,0-.568-.086l-3.25-.095a.133.133,0,0,1-.1-.057.135.135,0,0,1-.018-.119l.09-.282a.133.133,0,0,1,.126-.094l3.255-.047a11.493,11.493,0,0,0,2.406-.613,10.046,10.046,0,0,1,1.19-.286l8.262-.361-5.557-.172c-.285,0-.709-.015-1.415-.051-.263-.033-.582-.082-.96-.144l-1.8-.568-.65-.141-3.314-.1a.135.135,0,0,1-.116-.073.135.135,0,0,1,.008-.137l.187-.28a.135.135,0,0,1,.108-.06l3.389-.1c.034-.007.519-.136,2.038-.562a5.583,5.583,0,0,1,1.5-.288l6.8-.3-5.955-.182-.728-.142-1.717-.623a3.917,3.917,0,0,0-.656-.088h-3.393a.134.134,0,0,1-.115-.065.136.136,0,0,1-.005-.132l.189-.376a.137.137,0,0,1,.117-.074l3.48-.1a1.637,1.637,0,0,0,.53-.083l1.888-.572a3.318,3.318,0,0,1,1.026-.194l6.86-.3-6.023-.181c-.182-.04-.434-.1-.778-.194a11.069,11.069,0,0,0-2.037-.66h-3.578a.134.134,0,0,1-.109-.056.134.134,0,0,1-.019-.121l.137-.426a.134.134,0,0,1,.127-.093l3.583-.046c.1-.013,1.328-.371,1.988-.563a7.53,7.53,0,0,1,1.58-.288l5.261-.238-3.047-.125a8.4,8.4,0,0,1-2.113-.217l-1.69-.614a2.557,2.557,0,0,0-.849-.142h-3.346a.135.135,0,0,1-.113-.062.135.135,0,0,1-.01-.129l.193-.43a.135.135,0,0,1,.123-.079h2.727a5.077,5.077,0,0,0,1.377-.181l1.648-.475a23.3,23.3,0,0,1,5.03-.338h4.52a.134.134,0,0,1,.114.063.134.134,0,0,1,.008.131l-1.273,2.651a.134.134,0,0,1-.121.076h-.01l-1.379,2.716a.134.134,0,0,1-.077.067.135.135,0,0,1-.016.075l-1.458,2.79a.133.133,0,0,1-.039.045.144.144,0,0,1-.011.094l-1.461,2.794a.135.135,0,0,1-.083.067.149.149,0,0,1,.032.035.137.137,0,0,1,0,.136l-1.5,2.835a.138.138,0,0,1-.081.066L1039-302.021a.135.135,0,0,1-.091.069.14.14,0,0,1,0,.121l-1.414,2.742a.139.139,0,0,1-.082.068.138.138,0,0,1-.015.074l-1.458,2.791a.135.135,0,0,1-.078.066.132.132,0,0,1-.018.08c-.592,1.016-1.18,1.958-1.747,2.8a.134.134,0,0,1-.111.059h-.048a.151.151,0,0,1,.028.037.135.135,0,0,1-.015.143,15.447,15.447,0,0,1-2.756,2.818.134.134,0,0,1-.082.028l-.141,0C1028.362-288.022,1024.34-286.955,1019.016-286.955Z" transform="translate(-1002.694 319.523)" fill="#f8811f"/>
                <path id="Path_18756" data-name="Path 18756" d="M1047.419-319.617h0m0,0-1.272,2.651-6.219-.256a8.627,8.627,0,0,1-2.068-.207l-1.695-.616a2.69,2.69,0,0,0-.894-.15h-3.346l.193-.429h2.727a5.17,5.17,0,0,0,1.413-.186l1.649-.475a23.157,23.157,0,0,1,4.992-.332h4.52m-18.317,0-1.271,2.651-6.826-.242a7.628,7.628,0,0,1-2.305-.436,7.517,7.517,0,0,0-1.645-.483l-3.44-.044.186-.385,2.217-.05a16.99,16.99,0,0,0,2.209-.239l1.646-.436a8.362,8.362,0,0,1,1.791-.338h7.438m16.951,2.651h0m0,0-1.415,2.79-7.82-.236c-.155-.036-.405-.1-.746-.189a12.042,12.042,0,0,0-2.072-.664h-3.579l.137-.426,3.583-.045c.061,0,.737-.193,2.024-.569a7.423,7.423,0,0,1,1.552-.283l8.336-.377m-18.318,0-1.5,2.93-7.06-.3a6.945,6.945,0,0,1-2.829-.644,2.069,2.069,0,0,0-.751-.251l-3.531-.049.236-.4,3.483-.1a12.87,12.87,0,0,0,2.019-.543,4.728,4.728,0,0,1,1.373-.3l8.564-.343m16.812,2.93h0m0,0-1.458,2.79-7.725-.236-.705-.139-1.7-.617a4.02,4.02,0,0,0-.7-.1h-3.393l.19-.377,3.481-.1a1.77,1.77,0,0,0,.569-.09l1.884-.571a3.215,3.215,0,0,1,.987-.188l8.571-.379m-18.366,0-1.408,2.929-7.485-.29a8.8,8.8,0,0,1-2.309-.637,3.963,3.963,0,0,0-1.036-.189l-3.346-.1.19-.387,3.391-.052c.565-.127,1.255-.321,2.071-.588a4.1,4.1,0,0,1,1.316-.292l8.616-.39m16.857,2.929-1.46,2.794-6.024-.187c-.318,0-.785-.019-1.413-.051-.252-.032-.569-.08-.946-.142l-1.786-.563-.661-.144-3.338-.1.186-.28,3.39-.1c.029,0,.719-.187,2.07-.567a5.52,5.52,0,0,1,1.459-.283l8.522-.381m-18.361,0-1.46,3.031-7.766-.312a4.067,4.067,0,0,1-1.371-.407,5.452,5.452,0,0,0-1.644-.515l-3.386-.051.185-.358,3.532-.153a1.839,1.839,0,0,0,.634-.154c.268-.1.715-.244,1.342-.435a7.788,7.788,0,0,1,1.647-.336l8.285-.309m16.854,3.031-1.5,2.835-6.831-.236a6.724,6.724,0,0,1-1.738-.234l-1.7-.57a1.631,1.631,0,0,0-.61-.092l-3.246-.1.089-.282,3.255-.047a12.429,12.429,0,0,0,2.444-.619,10.012,10.012,0,0,1,1.173-.282l8.664-.378m-18.408,0-1.459,2.835-7.629-.29a5.88,5.88,0,0,1-.843-.09l-1.51-.533-.611-.193a.492.492,0,0,1-.188-.048l-3.338-.046.091-.292,3.528-.095c.409-.092.983-.266,1.724-.5a7.716,7.716,0,0,1,1.857-.411l8.379-.335m16.857,2.835h0m0,0-1.46,2.791h-.472l-7.342-.234a.408.408,0,0,0-.192-.049l-.654-.144-1.271-.424-.661-.19a.366.366,0,0,0-.191-.046l-3.386-.1.136-.327,1.982.048c.1,0,.207.006.309.006a5.743,5.743,0,0,0,1.762-.247l1.551-.469a6.593,6.593,0,0,1,1.369-.236l8.521-.381m-18.408,0-1.464,2.983-7.2-.3a8.957,8.957,0,0,1-2.12-.507,7.042,7.042,0,0,0-2.208-.459l-2.594-.047.142-.3,2.352-.049a7.973,7.973,0,0,0,1.75-.207l1.69-.552a3.7,3.7,0,0,1,1.272-.252l8.381-.306m16.855,2.983-1.414,2.742-7.438-.236a5.2,5.2,0,0,1-1.133-.142l-1.786-.614a3.918,3.918,0,0,0-1.412-.144l-2.5-.047.237-.331,3.339-.048a7.494,7.494,0,0,0,1.647-.4,12.059,12.059,0,0,1,1.982-.494l8.474-.286m-18.411,0-1.458,2.883-7.77-.287a18.038,18.038,0,0,1-2.309-.723c-.123-.03-.282-.08-.465-.14l-3.579-.1.189-.338,3.436-.049a1.3,1.3,0,0,0,.378-.1,30.973,30.973,0,0,1,3.154-.816l8.425-.334m16.9,2.883-1.459,2.791-7.58-.235a3.838,3.838,0,0,1-1.554-.38,5.3,5.3,0,0,0-1.692-.521l-3.437-.047.186-.328,3.437-.1a6.372,6.372,0,0,0,1.744-.376,8.609,8.609,0,0,1,1.786-.426l8.569-.381m-18.407,0a4.643,4.643,0,0,0-.283,1.183q0,1.041,1.506,1.749l-10.071-.471a6.455,6.455,0,0,1-2.026-.521,2.588,2.588,0,0,0-.751-.241l-3.533-.092.141-.285,3.48-.139c.066,0,.662-.16,1.787-.475a9.165,9.165,0,0,1,2.072-.373l7.677-.335m16.855,2.932h0m0,0c-.628,1.077-1.211,2-1.742,2.792l-24.387-.236a4.145,4.145,0,0,1-1.553-.335q-.66-.234-1.7-.522l-3.388-.044.186-.331,3.486-.093a10.7,10.7,0,0,0,1.926-.517,6.355,6.355,0,0,1,1.79-.385l10.029-.143h.142l.988.236a4.142,4.142,0,0,0,.849.052,9.333,9.333,0,0,0,2.305-.332l11.065-.144m-1.884,3.025a15.2,15.2,0,0,1-2.732,2.793l-21.087-.237c-.411-.061-.728-.109-.947-.139l-1.786-.617a3.974,3.974,0,0,0-.85-.092l-3.06-.1.143-.278,2.542-.052a5.6,5.6,0,0,0,1.7-.233l1.789-.525a6.241,6.241,0,0,1,1.039-.184l23.252-.336m-2.922,2.793q-3.9,3.172-11.907,3.17a29.06,29.06,0,0,1-8.005-.9l-1.6-.472a1.847,1.847,0,0,0-.518-.094l-3.2-.1.139-.288,3.532-.044a.716.716,0,0,1,.282-.1l1.6-.426.423-.142a4.027,4.027,0,0,1,1.367-.239l17.886-.376m16.862-29.263H1042.9a23.012,23.012,0,0,0-5.065.343l-1.651.475a4.93,4.93,0,0,1-1.339.175h-2.727a.267.267,0,0,0-.245.159l-.193.429a.273.273,0,0,0,.019.258.27.27,0,0,0,.227.123h3.346a2.445,2.445,0,0,1,.806.135l1.691.615a7.221,7.221,0,0,0,2.067.22l-2.13.1a7.668,7.668,0,0,0-1.613.292c-.59.172-1.8.525-1.971.559l-3.566.045a.27.27,0,0,0-.253.187l-.137.426a.272.272,0,0,0,.039.243.268.268,0,0,0,.218.111H1034a11.375,11.375,0,0,1,1.978.648l.023.007c.362.1.628.161.756.191a.281.281,0,0,0,.053.007l2.39.072-3.235.143h0a3.448,3.448,0,0,0-1.059.2l-1.878.568a1.509,1.509,0,0,1-.491.079l-3.489.1a.269.269,0,0,0-.233.148l-.189.377a.273.273,0,0,0,.01.263.271.271,0,0,0,.229.129h3.393a3.678,3.678,0,0,1,.63.087l1.679.61a.22.22,0,0,0,.039.011l.706.139a.219.219,0,0,0,.044,0l2.369.073-3.221.144h0a5.716,5.716,0,0,0-1.523.294c-1.405.4-1.923.534-2.023.557l-3.367.094a.268.268,0,0,0-.216.12l-.187.28a.271.271,0,0,0-.016.274.267.267,0,0,0,.231.146l3.314.1.444.1.181.039,1.774.56.037.009c.4.066.709.113.955.144l.02,0c.709.035,1.135.051,1.427.051l1.927.06-4.626.2-.035,0a10.2,10.2,0,0,0-1.206.29,11.324,11.324,0,0,1-2.366.607l-3.259.048a.268.268,0,0,0-.252.188l-.09.282a.27.27,0,0,0,.037.239.268.268,0,0,0,.211.114l3.248.1a1.366,1.366,0,0,1,.513.071l.019.007,1.7.57a6.85,6.85,0,0,0,1.8.247l-1.729.077a6.908,6.908,0,0,0-1.43.247l-1.555.47a5.519,5.519,0,0,1-1.685.235c-.1,0-.2,0-.3-.005l-1.985-.048h-.006a.269.269,0,0,0-.248.166l-.136.328a.273.273,0,0,0,.022.25.269.269,0,0,0,.219.124l3.386.1a.117.117,0,0,1,.064.01.269.269,0,0,0,.061.026l.661.19,1.26.42.027.007.655.144a.263.263,0,0,0,.057.006.141.141,0,0,1,.069.019.264.264,0,0,0,.114.03l2.211.07-2.964.1-.025,0a12.383,12.383,0,0,0-2.029.5,6.934,6.934,0,0,1-1.565.387l-3.342.048a.271.271,0,0,0-.215.112l-.236.331a.267.267,0,0,0-.023.278.268.268,0,0,0,.235.149l2.5.047a3.583,3.583,0,0,1,1.283.108.285.285,0,0,0,.047.021l1.787.614.027.008a5.418,5.418,0,0,0,1.192.149l2.135.068-3.373.15a8.785,8.785,0,0,0-1.856.438,6.183,6.183,0,0,1-1.662.364l-3.445.1a.268.268,0,0,0-.226.136l-.187.328a.273.273,0,0,0,0,.268.269.269,0,0,0,.23.136l3.438.047a4.786,4.786,0,0,1,1.59.5,4.748,4.748,0,0,0,1.059.343l-2.98.039a.254.254,0,0,0-.063.008,9,9,0,0,1-2.239.323,3.764,3.764,0,0,1-.778-.043l-1-.238a.292.292,0,0,0-.062-.007h-.168a.269.269,0,0,0-.143-.163c-.9-.42-1.35-.926-1.35-1.5a3.746,3.746,0,0,1,.227-.969.287.287,0,0,0,.075-.091l1.39-2.747a.273.273,0,0,0,.161-.139l1.4-2.845a.266.266,0,0,0,.156-.133l1.391-2.7a.268.268,0,0,0,.166-.142l1.393-2.89a.269.269,0,0,0,.164-.141l1.354-2.816a.272.272,0,0,0,.1-.108l1.436-2.794a.268.268,0,0,0,.167-.142l1.273-2.651a.27.27,0,0,0-.015-.261.269.269,0,0,0-.229-.127h-7.438a8.483,8.483,0,0,0-1.858.347l-1.633.432a16.825,16.825,0,0,1-2.155.234l-2.223.05a.27.27,0,0,0-.236.152l-.186.385a.271.271,0,0,0,.013.26.269.269,0,0,0,.227.129l3.439.044a6.925,6.925,0,0,1,1.556.467,7.854,7.854,0,0,0,2.081.434l-1.528.061h0a4.956,4.956,0,0,0-1.446.317,11.729,11.729,0,0,1-1.934.53l-3.49.1a.271.271,0,0,0-.224.132l-.237.4a.273.273,0,0,0,0,.27.268.268,0,0,0,.23.138l3.532.049a1.769,1.769,0,0,1,.638.225,7.258,7.258,0,0,0,2.937.671l.843.035-2.452.111h0a4.328,4.328,0,0,0-1.393.307c-.767.251-1.446.444-2.013.573l-3.363.052a.268.268,0,0,0-.237.151l-.19.387a.27.27,0,0,0,.01.259.268.268,0,0,0,.222.131l3.346.1a3.591,3.591,0,0,1,.961.176,8.816,8.816,0,0,0,2.393.65l.335.013-1.242.046a8.107,8.107,0,0,0-1.716.347c-.665.2-1.1.343-1.358.441a1.571,1.571,0,0,1-.541.137l-3.543.154a.268.268,0,0,0-.227.145l-.186.358a.274.274,0,0,0,.007.263.272.272,0,0,0,.227.132l3.386.051a4.927,4.927,0,0,1,1.544.493,4.172,4.172,0,0,0,1.475.428l.971.039-1.689.067a7.994,7.994,0,0,0-1.931.425c-.611.195-1.237.39-1.672.489l-3.5.094a.27.27,0,0,0-.25.19l-.091.292a.269.269,0,0,0,.039.24.269.269,0,0,0,.214.112l3.289.046a.718.718,0,0,0,.193.046l.578.182,1.5.53.025.007a6.062,6.062,0,0,0,.891.1l.339.013-1.175.043h0a3.981,3.981,0,0,0-1.353.268l-1.681.549a7.823,7.823,0,0,1-1.678.194l-2.346.049a.27.27,0,0,0-.239.156l-.141.3a.272.272,0,0,0,.015.258.27.27,0,0,0,.224.127l2.594.047a6.838,6.838,0,0,1,2.125.444,9.265,9.265,0,0,0,2.187.521l.528.022-1.836.073a.279.279,0,0,0-.046.006,31.124,31.124,0,0,0-3.182.823,1.167,1.167,0,0,1-.3.085l-3.437.049a.271.271,0,0,0-.231.138l-.189.339a.271.271,0,0,0,0,.266.266.266,0,0,0,.226.137l3.541.1c.2.064.328.1.435.13a17.945,17.945,0,0,0,2.339.73l.038,0,1.04.038-1,.044a9.466,9.466,0,0,0-2.133.383c-1.3.363-1.66.454-1.733.465l-3.472.139a.268.268,0,0,0-.229.15l-.141.285a.269.269,0,0,0,.01.26.268.268,0,0,0,.223.131l3.533.093a2.209,2.209,0,0,1,.653.22,6.72,6.72,0,0,0,2.116.541l4.356.2-4.019.057a6.56,6.56,0,0,0-1.87.4,10.158,10.158,0,0,1-1.843.5l-3.494.093a.269.269,0,0,0-.227.137l-.186.331a.271.271,0,0,0,0,.268.27.27,0,0,0,.23.135l3.353.044c.668.186,1.221.356,1.645.506a4.376,4.376,0,0,0,1.643.35l11.541.111-10.552.153-.029,0a6.227,6.227,0,0,0-1.093.2l-1.779.521a5.344,5.344,0,0,1-1.62.222l-2.548.053a.268.268,0,0,0-.233.146l-.143.278a.272.272,0,0,0,.006.261.27.27,0,0,0,.224.133l3.06.1a3.764,3.764,0,0,1,.787.083l1.77.612a.268.268,0,0,0,.051.012c.173.023.406.058.7.1l.246.036.037,0,4.211.047-1.2.025h0a4.3,4.3,0,0,0-1.451.254l-.41.137-1.593.424a1.374,1.374,0,0,0-.29.087l-3.458.043a.269.269,0,0,0-.238.152l-.14.288a.273.273,0,0,0,.012.258.269.269,0,0,0,.222.13l3.2.1a1.562,1.562,0,0,1,.447.082l1.6.472a29.5,29.5,0,0,0,8.081.911c5.329,0,9.367-1.067,12-3.171h.094a.267.267,0,0,0,.164-.056,15.556,15.556,0,0,0,2.781-2.842.271.271,0,0,0,.056-.16.278.278,0,0,0,.1-.087c.566-.842,1.152-1.782,1.744-2.794a.279.279,0,0,0,.036-.079.265.265,0,0,0,.071-.086l1.458-2.791a.236.236,0,0,0,.021-.052.275.275,0,0,0,.077-.091l1.414-2.741a.262.262,0,0,0,.03-.111.26.26,0,0,0,.063-.079l1.4-2.683a.272.272,0,0,0,.1-.107l1.5-2.835a.275.275,0,0,0,.022-.2.243.243,0,0,0,.025-.04l1.46-2.794a.27.27,0,0,0,.03-.106.238.238,0,0,0,.021-.033l1.451-2.776a.28.28,0,0,0,.031-.07.28.28,0,0,0,.07-.087l1.346-2.653a.268.268,0,0,0,.164-.141l1.265-2.637a.269.269,0,0,0,.035-.132.269.269,0,0,0-.269-.27Zm0,.541h0Zm-18.317,0h0Zm16.951,2.651h0Zm-18.318,0h0Zm16.812,2.93h0Zm-18.366,0h0Zm16.857,2.929h0Zm-18.361,0h0Zm16.854,3.031h0Zm-18.408,0h0Zm16.857,2.835h0Zm-18.408,0h0Zm16.855,2.983h0Zm-18.411,0h0Zm16.9,2.883h0Zm-18.407,0h0Zm16.855,2.932h0Zm-1.884,3.025h0Zm-2.922,2.793h0Z" transform="translate(-1002.328 319.888)" fill="#fff"/>
              </g>
              <g id="Group_24561" data-name="Group 24561" transform="translate(89.296)">
                <path id="Path_18757" data-name="Path 18757" d="M1122.126-288.564a36.547,36.547,0,0,1-8.13-.711l-2.732-.663a3.111,3.111,0,0,0-.862-.094l-3.156-.095a.134.134,0,0,1-.112-.066.134.134,0,0,1-.005-.13l.14-.284a.135.135,0,0,1,.117-.076l3.388-.092a8.949,8.949,0,0,0,2.175-.565,8.22,8.22,0,0,1,1.583-.336l18.171-.281-16.46-.155a6.405,6.405,0,0,1-1.982-.2l-1.457-.517a5.98,5.98,0,0,0-1.137-.136l-2.866-.094a.134.134,0,0,1-.115-.073.136.136,0,0,1,.007-.137l.186-.279a.131.131,0,0,1,.108-.06l3.324-.1a28.161,28.161,0,0,1,3.815-.9l13.723-.253-12.9-.134a9.958,9.958,0,0,1-2.535-.672,2.249,2.249,0,0,0-.712-.185l-3.345-.093a.135.135,0,0,1-.112-.066.135.135,0,0,1,0-.13l.142-.282a.134.134,0,0,1,.116-.074l3.247-.094a1.709,1.709,0,0,0,.7-.134l2.184-.62a3.622,3.622,0,0,1,1.074-.145l16.995-.31-3.581-.084a7.581,7.581,0,0,1-2.5-.671,1.9,1.9,0,0,0-.611-.177l-3.535-.1a.137.137,0,0,1-.11-.062.138.138,0,0,1-.01-.127l.142-.33a.137.137,0,0,1,.123-.082l3.437-.048c.293-.052.913-.224,1.988-.557a12.038,12.038,0,0,1,1.574-.334l5.5-.2-5.814-.1a8.429,8.429,0,0,1-2.916-.719,2.171,2.171,0,0,0-.75-.179l-3.4-.093a.134.134,0,0,1-.111-.066.134.134,0,0,1-.006-.129l.14-.286a.137.137,0,0,1,.116-.075l3.439-.138a4.474,4.474,0,0,0,.459-.049l1.954-.562a3.931,3.931,0,0,1,1.168-.2l10.83-.376a.134.134,0,0,1,.133.123c.066.691.1,1.11.1,1.243a8.056,8.056,0,0,1-.19,1.586,9.177,9.177,0,0,1-.96,2.873h0a18.514,18.514,0,0,1-1.939,2.908.135.135,0,0,1-.1.051h-.031a17.057,17.057,0,0,1-2.573,2.478l-.234.186a.14.14,0,0,1-.058.027.784.784,0,0,0-.121.107.137.137,0,0,1-.1.039l-.163,0a.058.058,0,0,1,.005.017.134.134,0,0,1-.057.153,18.988,18.988,0,0,1-5.876,2.481A36.636,36.636,0,0,1,1122.126-288.564Zm4.707-15.275a6.667,6.667,0,0,1-2.4-.53,8.392,8.392,0,0,0-1.434-.377l-3.223-.044a.134.134,0,0,1-.11-.061.132.132,0,0,1-.012-.126l.136-.327a.137.137,0,0,1,.121-.083l2.734-.1a8.657,8.657,0,0,0,1.62-.23l1.737-.477a3.176,3.176,0,0,1,.882-.151l10.691-.28-13.377-.152a5.253,5.253,0,0,1-1.832-.388,5.357,5.357,0,0,0-1.885-.464l-3.159-.093a.136.136,0,0,1-.11-.063.135.135,0,0,1-.01-.126l.146-.338a.136.136,0,0,1,.122-.081l3.246-.044a15.4,15.4,0,0,0,2.179-.56,6.224,6.224,0,0,1,1.681-.335l7.038-.215-6.474-.131a12.525,12.525,0,0,1-3.895-.716,1.849,1.849,0,0,0-.572-.135l-3.442-.094a.137.137,0,0,1-.114-.069.139.139,0,0,1,0-.133l.189-.335a.137.137,0,0,1,.116-.069l3.01-.044a8.976,8.976,0,0,0,2.082-.463,8.7,8.7,0,0,1,1.833-.435l9.659-.359-7.827-.176a9.808,9.808,0,0,1-3.013-.389,6.773,6.773,0,0,0-1.646-.51h-3.393a.135.135,0,0,1-.11-.058.138.138,0,0,1-.016-.125l.143-.379a.134.134,0,0,1,.122-.087l3.391-.093a4.833,4.833,0,0,0,.682-.092l2.008-.612a3.677,3.677,0,0,1,1.124-.146l16.5-.342-14.849-.147a3.486,3.486,0,0,1-1.075-.146l-1.841-.619a1.164,1.164,0,0,0-.332-.038h-3.626a.132.132,0,0,1-.112-.062.134.134,0,0,1-.011-.129l.189-.426a.136.136,0,0,1,.12-.08l3.479-.093a2.3,2.3,0,0,0,.625-.14l1.886-.568a3.751,3.751,0,0,1,1.123-.139l12.669-.3-8.715-.109a4.29,4.29,0,0,1-1.556-.211l-1.266-.452a4.672,4.672,0,0,0-1.648-.3l-2.5-.048a.134.134,0,0,1-.114-.067.131.131,0,0,1,0-.132l.186-.351a.135.135,0,0,1,.119-.071h2.446a39.053,39.053,0,0,0,4.684-.659,53.5,53.5,0,0,1,9.112-.9,23.788,23.788,0,0,1,7.764,1.18.139.139,0,0,1,.081.077.139.139,0,0,1-.006.112l-.985,1.95a.14.14,0,0,1-.08.068l-1.525,2.778a.135.135,0,0,1,.005.134l-1.6,3.076a.135.135,0,0,1-.12.072.143.143,0,0,1-.046-.008l-.942-.346a14.354,14.354,0,0,0-4.9-.83,6.714,6.714,0,0,0-3.828.924.134.134,0,0,1-.077.024l-.1,0a.172.172,0,0,1,.027.033.137.137,0,0,1,0,.137,1.462,1.462,0,0,0-.22.694c0,.567.578,1.13,1.715,1.672a4.992,4.992,0,0,1,.649.276l.281-.009a.133.133,0,0,1,.052.01,8.358,8.358,0,0,1,3.92,2.846.134.134,0,0,1,.021.079h.014a.134.134,0,0,1,.108.055,6.025,6.025,0,0,1,1.151,2.854.138.138,0,0,1-.034.107.133.133,0,0,1-.1.045Z" transform="translate(-1106.979 321.794)" fill="#f8811f"/>
                <path id="Path_18758" data-name="Path 18758" d="M1140.592-321.889a23.553,23.553,0,0,1,7.719,1.172l-.985,1.951-16.2-.2a4.178,4.178,0,0,1-1.5-.2l-1.273-.454a4.766,4.766,0,0,0-1.693-.3l-2.5-.048.186-.351h2.446a38.99,38.99,0,0,0,4.708-.661,53.1,53.1,0,0,1,9.089-.9m6.69,3.123h0m0,0-1.556,2.834-18.976-.189a3.341,3.341,0,0,1-1.034-.139l-1.839-.619a1.271,1.271,0,0,0-.375-.046h-3.626l.188-.426,3.48-.093a2.505,2.505,0,0,0,.661-.145l1.885-.568a3.644,3.644,0,0,1,1.084-.133l20.109-.477m-1.556,2.978h0m0,0-1.6,3.076-.943-.346a14.421,14.421,0,0,0-4.942-.838,6.82,6.82,0,0,0-3.906.948l-8.521-.192a9.77,9.77,0,0,1-2.967-.38,6.684,6.684,0,0,0-1.7-.519h-3.392l.144-.379,3.391-.094a4.954,4.954,0,0,0,.7-.093l2.024-.615a3.516,3.516,0,0,1,1.085-.141l20.625-.427m-11.584,3.076a1.582,1.582,0,0,0-.238.76q0,.938,1.793,1.794a5.245,5.245,0,0,1,.659.28l-11.583-.235a12.336,12.336,0,0,1-3.854-.708,1.957,1.957,0,0,0-.617-.143l-3.437-.094.189-.335,3.01-.044a9,9,0,0,0,2.119-.469,8.735,8.735,0,0,1,1.794-.428l10.166-.378m2.542,2.834a8.193,8.193,0,0,1,3.858,2.794l-16.714-.19a5.111,5.111,0,0,1-1.786-.379,5.46,5.46,0,0,0-1.932-.473l-3.156-.092.145-.338,3.247-.045a16.161,16.161,0,0,0,2.215-.566,6.157,6.157,0,0,1,1.641-.33l12.48-.382m4.006,2.935a5.872,5.872,0,0,1,1.125,2.791l-15.347-.189a6.589,6.589,0,0,1-2.357-.521,8.5,8.5,0,0,0-1.457-.384l-3.247-.047.136-.327,2.735-.1a8.787,8.787,0,0,0,1.648-.234l1.739-.477a3.114,3.114,0,0,1,.847-.145l14.177-.372m1.171,3.168q.1,1.042.1,1.23a7.951,7.951,0,0,1-.185,1.559l-10.834-.188a8.28,8.28,0,0,1-2.868-.71,2.312,2.312,0,0,0-.8-.188l-3.394-.093.14-.286,3.439-.138a4.433,4.433,0,0,0,.473-.05l1.973-.566a3.78,3.78,0,0,1,1.131-.193l10.829-.376m-.089,2.789a8.984,8.984,0,0,1-.948,2.837l-10.072-.236a7.441,7.441,0,0,1-2.449-.661,2.1,2.1,0,0,0-.66-.187l-3.532-.1.143-.33,3.436-.048a20.734,20.734,0,0,0,2.026-.564,12,12,0,0,1,1.555-.33l10.5-.382m-.948,2.837a18.523,18.523,0,0,1-1.925,2.887l-22.317-.232a10.044,10.044,0,0,1-2.493-.664,2.446,2.446,0,0,0-.757-.193l-3.341-.093.142-.282,3.248-.094a1.831,1.831,0,0,0,.752-.146l2.165-.614a3.5,3.5,0,0,1,1.038-.14l23.488-.429m-2.021,2.887a16.568,16.568,0,0,1-2.591,2.507l-.233.186c-.033,0-.1.049-.192.144l-19.912-.188a6.321,6.321,0,0,1-1.934-.193l-1.458-.518a6.088,6.088,0,0,0-1.175-.144l-2.87-.094.185-.28,3.345-.1a27.862,27.862,0,0,1,3.815-.9l23.02-.424m-3.3,3.026a18.785,18.785,0,0,1-5.835,2.463,36.386,36.386,0,0,1-7.909.707,36.3,36.3,0,0,1-8.1-.707l-2.731-.663a3.224,3.224,0,0,0-.9-.1l-3.153-.1.14-.284,3.389-.093a9.849,9.849,0,0,0,2.214-.572,8.054,8.054,0,0,1,1.556-.33l21.322-.329m5.088-29.924a53.669,53.669,0,0,0-9.136.9,39.02,39.02,0,0,1-4.661.657h-2.446a.266.266,0,0,0-.236.143l-.187.351a.27.27,0,0,0,0,.264.271.271,0,0,0,.227.134l2.5.048a4.522,4.522,0,0,1,1.6.287l1.277.456a4.351,4.351,0,0,0,1.6.216l1.26.016-5.221.124h0a3.864,3.864,0,0,0-1.158.146l-1.88.567a2.216,2.216,0,0,1-.583.134l-3.487.093a.269.269,0,0,0-.239.16l-.188.426a.271.271,0,0,0,.02.257.267.267,0,0,0,.226.123h3.626a1,1,0,0,1,.292.033l1.836.618a3.6,3.6,0,0,0,1.119.153l6.025.06-7.679.159h0a3.729,3.729,0,0,0-1.161.154l-2,.609a4.727,4.727,0,0,1-.64.087l-3.4.094a.269.269,0,0,0-.244.174l-.143.379a.274.274,0,0,0,.031.249.271.271,0,0,0,.221.117h3.392a6.238,6.238,0,0,1,1.6.5,9.9,9.9,0,0,0,3.058.4l3.3.074-5.139.191h0a7.712,7.712,0,0,0-1.86.44,8.9,8.9,0,0,1-2.041.457l-3.015.045a.267.267,0,0,0-.229.137l-.19.335a.275.275,0,0,0,0,.266.272.272,0,0,0,.228.137l3.438.093a1.732,1.732,0,0,1,.533.127,12.664,12.664,0,0,0,3.939.724l1.164.024-1.733.053h0a6.354,6.354,0,0,0-1.711.341,15.407,15.407,0,0,1-2.152.555l-3.235.044a.268.268,0,0,0-.243.163l-.146.338a.275.275,0,0,0,.02.252.271.271,0,0,0,.219.126l3.157.092a5.214,5.214,0,0,1,1.838.454,5.4,5.4,0,0,0,1.886.4l6.191.071-3.514.092h0a3.309,3.309,0,0,0-.913.156l-1.737.476a8.506,8.506,0,0,1-1.59.225l-2.73.1a.27.27,0,0,0-.24.166l-.136.327a.272.272,0,0,0,.024.252.266.266,0,0,0,.221.122l3.221.046a8.217,8.217,0,0,1,1.384.364,6.8,6.8,0,0,0,2.458.541l11.9.146-7.343.255h0a4.044,4.044,0,0,0-1.2.205l-1.948.559c-.184.025-.341.045-.418.045l-3.451.138a.269.269,0,0,0-.229.151l-.141.286a.27.27,0,0,0,.01.259.269.269,0,0,0,.223.131l3.394.094a2.059,2.059,0,0,1,.712.17,8.55,8.55,0,0,0,2.964.728l.77.013-.446.016-.031,0a12.188,12.188,0,0,0-1.589.338c-1.051.326-1.662.5-1.976.553l-3.415.048a.27.27,0,0,0-.243.162l-.142.33a.267.267,0,0,0,.019.253.27.27,0,0,0,.219.125l3.531.1a1.755,1.755,0,0,1,.568.167,11.773,11.773,0,0,0,1.737.574l-12.609.23h0a3.722,3.722,0,0,0-1.111.152l-2.16.612a.226.226,0,0,0-.038.013,1.557,1.557,0,0,1-.641.122l-3.255.094a.267.267,0,0,0-.232.148l-.143.282a.272.272,0,0,0,.009.26.272.272,0,0,0,.224.132l3.341.094a2.111,2.111,0,0,1,.668.175,10.011,10.011,0,0,0,2.589.682l3.5.036-4.3.079a.293.293,0,0,0-.044,0,28.5,28.5,0,0,0-3.816.9l-3.3.1a.267.267,0,0,0-.216.121l-.185.28a.27.27,0,0,0-.015.273.267.267,0,0,0,.23.146l2.87.094a6.073,6.073,0,0,1,1.1.131l1.452.515a6.4,6.4,0,0,0,2.024.208l5.584.053-7.284.112-.028,0a8.333,8.333,0,0,0-1.606.341,8.939,8.939,0,0,1-2.131.558l-3.4.093a.27.27,0,0,0-.234.15l-.14.284a.275.275,0,0,0,.011.259.269.269,0,0,0,.222.131l3.154.1a3.012,3.012,0,0,1,.825.087l.014,0,2.73.663a36.679,36.679,0,0,0,8.162.715,36.8,36.8,0,0,0,7.969-.714,19.146,19.146,0,0,0,5.918-2.5.275.275,0,0,0,.114-.147h.028a.268.268,0,0,0,.191-.079c.045-.044.071-.067.085-.078a.273.273,0,0,0,.082-.045l.234-.186a17.332,17.332,0,0,0,2.554-2.451.269.269,0,0,0,.176-.1,18.633,18.633,0,0,0,1.954-2.929,9.313,9.313,0,0,0,.973-2.914,8.184,8.184,0,0,0,.191-1.608c0-.14-.032-.55-.1-1.256a.264.264,0,0,0-.1-.186.273.273,0,0,0,.055-.2,6.155,6.155,0,0,0-1.176-2.918.266.266,0,0,0-.119-.091.218.218,0,0,0-.02-.035,8.484,8.484,0,0,0-3.979-2.9.279.279,0,0,0-.1-.021h-.009l-.243.007a5.449,5.449,0,0,0-.635-.268c-1.062-.509-1.624-1.042-1.624-1.543a1.342,1.342,0,0,1,.2-.627.277.277,0,0,0,.034-.11.281.281,0,0,0,.074-.036,6.592,6.592,0,0,1,3.753-.9,14.221,14.221,0,0,1,4.851.822l.94.345a.27.27,0,0,0,.094.016.269.269,0,0,0,.238-.145l1.595-3.062a.27.27,0,0,0,.039-.14.24.24,0,0,0-.008-.062l1.472-2.682a.258.258,0,0,0,.1-.111l.986-1.951a.27.27,0,0,0,.01-.224.27.27,0,0,0-.162-.154,23.921,23.921,0,0,0-7.807-1.187Zm6.69,3.663h0Zm-1.556,2.978h0Zm-11.584,3.076h0Zm7.63,11.727h0Zm-.946,2.836Zm-2.023,2.887h0Zm-3.3,3.026h0Z" transform="translate(-1106.614 322.159)" fill="#fff"/>
              </g>
            </g>
          </g>
          <g id="Group_24564" data-name="Group 24564" transform="translate(0.269 0.27)">
            <path id="Path_18759" data-name="Path 18759" d="M774.456-288.286l.143-.288,3.388-.091a7.643,7.643,0,0,0,1.418-.332l.984-.283a.816.816,0,0,1,.422-.14,5.209,5.209,0,0,1,1.133-.143l20.144-.333-1.314,2.553H781.329a4.115,4.115,0,0,1-1.362-.185l-1.462-.521a1.844,1.844,0,0,0-.659-.142Zm1.552-2.932.144-.282,3.435-.1a7.165,7.165,0,0,0,1.677-.448,6.7,6.7,0,0,1,2.092-.448l20.337-.333-1.46,2.789-20.527-.38c-.128-.033-.328-.09-.61-.188a7.494,7.494,0,0,0-1.69-.519Zm1.557-2.821.095-.275,2.636-.094a12.318,12.318,0,0,0,1.365-.092l1.835-.513a4.382,4.382,0,0,1,1.227-.23l8.427-.37H805.2l-1.462,2.788-19.772-.281a2.131,2.131,0,0,1-.75-.139l-1.414-.512a9.5,9.5,0,0,0-2.311-.237Zm1.553-2.852.139-.333,3.488-.051c.406-.09,1.015-.265,1.834-.523a4.956,4.956,0,0,1,1.556-.327l8.659-.286-1.507,2.8-7.623-.336a6.2,6.2,0,0,1-1.558-.375l-.89-.334a1.861,1.861,0,0,0-.752-.145Zm1.55-3.078.1-.331,3.483-.1a4.227,4.227,0,0,0,.8-.187l.846-.233a8.73,8.73,0,0,1,2.355-.424l20.058-.386-1.461,2.841H787.31a3.81,3.81,0,0,1-1.645-.615,3.3,3.3,0,0,0-1.558-.521Zm1.511-2.958.187-.353h2.967a8.676,8.676,0,0,0,2.1-.438,8.674,8.674,0,0,1,2.144-.438l20.29-.305-1.508,2.834-19.728-.3a2.407,2.407,0,0,1-.843-.2,9.354,9.354,0,0,0-2.214-.7Zm1.554-2.764.19-.33,3.387-.047a6.474,6.474,0,0,0,1.552-.4,7.854,7.854,0,0,1,1.976-.453l8.238-.327h12.292l-1.459,2.788-17.044-.234c-.471,0-1.13-.019-1.976-.051-.66-.032-1.1-.064-1.317-.094l-1.981-.665a11.053,11.053,0,0,0-1.838-.137Zm1.555-3.123.14-.283,3.486-.093a2.3,2.3,0,0,0,.611-.142,14.819,14.819,0,0,1,2.92-.709l8.522-.335-1.461,2.794-7.722-.281a2.21,2.21,0,0,1-.8-.146l-1.692-.566a4.839,4.839,0,0,0-.662-.193Zm1.556-2.932.138-.333,3.435-.045a3.486,3.486,0,0,0,.9-.185,27.434,27.434,0,0,1,2.964-.715l20.2-.326-1.458,2.79H794.371a4.973,4.973,0,0,1-1.648-.286l-1.743-.616a7.95,7.95,0,0,0-.941-.238Zm1.5-2.791.143-.377,3.387-.049a3.337,3.337,0,0,0,.708-.139l2.21-.617a3.437,3.437,0,0,1,.988-.142l20.243-.332-1.507,2.841-19.531-.287a4.447,4.447,0,0,1-1.7-.375,5.382,5.382,0,0,0-1.644-.479Zm1.505-3.026.235-.378,2.683-.047a4.475,4.475,0,0,0,1.318-.145l1.98-.566c.033,0,.437-.047,1.228-.142.276-.032,1.2-.049,2.771-.049H817.3l-1.226,2.462-19.771-.236a7.693,7.693,0,0,1-2.163-.571,3.7,3.7,0,0,0-.8-.232Z" transform="translate(-774.456 319.502)" fill="#004b98"/>
            <path id="Path_18760" data-name="Path 18760" d="M897.987-298.616l.142-.329,3.437-.049a.694.694,0,0,0,.235-.049l1.464-.375.655-.188a4.346,4.346,0,0,1,1.275-.236l9.271-.288a4.892,4.892,0,0,0,3.2,2.8l-12.9-.287a4.232,4.232,0,0,1-1.5-.307c-.537-.2-1.119-.406-1.748-.594Zm.376,3.006.142-.4,3.107-.051a1.885,1.885,0,0,0,.424-.054h.283l2.214-.716a3.436,3.436,0,0,1,1.081-.205l12.525-.3a7.631,7.631,0,0,0,1.978.233,25.862,25.862,0,0,0,5.081-.521l-1.786,3.311-18.5-.352a2.452,2.452,0,0,1-.9-.151l-1.6-.6a3.944,3.944,0,0,0-1.367-.149Zm.049-5.845.142-.28,3.3-.1c.186-.03.436-.063.75-.1l1.79-.567a6.246,6.246,0,0,1,1.224-.185l8.9-.329a8.31,8.31,0,0,0-.283,1.653,10.794,10.794,0,0,0,.143,1.228l-9.462-.377a8.6,8.6,0,0,1-2.311-.664,1.682,1.682,0,0,0-.654-.14Zm.894-2.883.141-.283,3.579-.094.33-.1,1.644-.471a6.348,6.348,0,0,1,1.743-.331l9.323-.238a16.263,16.263,0,0,0-1.554,2.841l-8.708-.381a10.342,10.342,0,0,1-2.448-.708,1.718,1.718,0,0,0-.569-.142Zm.238,11.587.186-.331H901.9a7.39,7.39,0,0,0,1.928-.189l1.786-.522a3.861,3.861,0,0,1,1.13-.19l16.62-.328-1.457,2.791L906.18-291.8a3.175,3.175,0,0,1-1.087-.19l-1.314-.474a6.065,6.065,0,0,0-1.553-.189c-.126,0-.472-.014-1.036-.049Zm1.034-14.71.186-.285,2.731-.044a4.959,4.959,0,0,0,1.458-.19l1.6-.476a3.722,3.722,0,0,1,1.173-.185l11.2-.335a19.017,19.017,0,0,0-2.493,2.508l-.283.335-9.228-.335a7.941,7.941,0,0,1-2.122-.664,4.188,4.188,0,0,0-.984-.232Zm1.834-2.886.187-.331,2.263-.046a10.382,10.382,0,0,0,2.072-.237l1.551-.424a5.472,5.472,0,0,1,1.556-.236l15.063-.236a15.982,15.982,0,0,0-5.978,2.742l-9.085-.238a11.807,11.807,0,0,1-3.578-.756,1.108,1.108,0,0,0-.469-.139Zm.425,20.528.141-.288,3.248-.091c.192-.032.423-.063.708-.094l1.741-.521a5.342,5.342,0,0,1,1.6-.283l11.532-.285-1.367,2.6a1.5,1.5,0,0,0-.374.074,8.172,8.172,0,0,1-.845.169l-1.085.185q-1.13.1-2.117.095a30.378,30.378,0,0,1-4.144-.28q-1.6-.237-5.276-1.14h-.185a.38.38,0,0,0-.142-.045Zm2.117-23.44.189-.4h3.392a1.9,1.9,0,0,0,.752-.185,12.417,12.417,0,0,1,3.1-.664l21.848-.333-1.744,3.218a13.044,13.044,0,0,0-3.811-.572,13.954,13.954,0,0,0-2.822.336l-10.829-.253c-.878-.032-1.712-.064-2.5-.1-.877-.066-1.455-.126-1.717-.177a13.483,13.483,0,0,1-1.814-.62,1.762,1.762,0,0,0-.566-.15Zm3.3-2.811.233-.471,3.3-.047a2.1,2.1,0,0,0,.564-.094l2.213-.619a3.948,3.948,0,0,1,1.085-.133l20.1-.335-1.462,2.79-18.783-.236a5.067,5.067,0,0,1-1.739-.237l-1.417-.521a6.99,6.99,0,0,0-1.6-.1ZM913.426-319l.193-.429,3.482-.092a.764.764,0,0,0,.189-.051h.235l5.271-.9a38.319,38.319,0,0,1,6.453-.521,32.83,32.83,0,0,1,7.719.9l-1.177,2.177-15.487-.238a3.1,3.1,0,0,1-1.082-.191l-1.506-.519c-.036,0-.269-.047-.71-.139a5.051,5.051,0,0,0-.846-.048Z" transform="translate(-864.873 321.034)" fill="#f8811f"/>
            <path id="Path_18761" data-name="Path 18761" d="M1003.329-294.057l.186-.331,3.486-.094a10.662,10.662,0,0,0,1.926-.517,6.362,6.362,0,0,1,1.791-.385l10.03-.142h.14l.989.236a4.118,4.118,0,0,0,.849.052,9.319,9.319,0,0,0,2.305-.332l11.065-.144c-.629,1.077-1.211,2-1.743,2.792l-24.386-.236a4.15,4.15,0,0,1-1.554-.335q-.659-.234-1.7-.521Zm.421,2.978.143-.278,2.542-.053a5.589,5.589,0,0,0,1.7-.233l1.79-.525a6.221,6.221,0,0,1,1.039-.184l23.254-.336a15.264,15.264,0,0,1-2.733,2.793l-21.087-.237c-.411-.061-.728-.109-.948-.139l-1.785-.617a4,4,0,0,0-.851-.092Zm.332-5.958.142-.285,3.48-.139q.1,0,1.787-.475a9.2,9.2,0,0,1,2.071-.373l7.678-.335a4.6,4.6,0,0,0-.283,1.183q0,1.041,1.507,1.749l-10.072-.471a6.5,6.5,0,0,1-2.027-.521,2.578,2.578,0,0,0-.75-.241Zm1.082-2.855.19-.338,3.435-.049a1.3,1.3,0,0,0,.379-.1,30.824,30.824,0,0,1,3.155-.816l8.425-.334-1.459,2.883-7.77-.287a17.979,17.979,0,0,1-2.309-.723c-.123-.03-.283-.079-.465-.14Zm.9,11.607.139-.288,3.531-.044a.728.728,0,0,1,.282-.1l1.6-.426.423-.142a4.025,4.025,0,0,1,1.367-.239l17.885-.376q-3.9,3.172-11.906,3.17a29.073,29.073,0,0,1-8.005-.9l-1.6-.472a1.835,1.835,0,0,0-.517-.093Zm.657-14.556.142-.3,2.352-.049a7.975,7.975,0,0,0,1.749-.207l1.69-.552a3.7,3.7,0,0,1,1.273-.252l8.38-.306-1.463,2.983-7.2-.3a8.95,8.95,0,0,1-2.12-.507,7.052,7.052,0,0,0-2.208-.459Zm1.558-2.868.091-.292,3.528-.095c.41-.092.983-.266,1.724-.5a7.724,7.724,0,0,1,1.857-.411l8.379-.335-1.46,2.835-7.629-.29a6.007,6.007,0,0,1-.843-.09l-1.51-.533-.611-.193a.492.492,0,0,1-.188-.048Zm1.506-2.92.186-.358,3.531-.153a1.838,1.838,0,0,0,.635-.154c.268-.1.715-.245,1.342-.436a7.786,7.786,0,0,1,1.647-.336l8.285-.31-1.46,3.031-7.766-.312a4.056,4.056,0,0,1-1.371-.407,5.459,5.459,0,0,0-1.644-.515Zm1.548-2.967.191-.387,3.391-.052c.565-.127,1.255-.322,2.071-.589a4.111,4.111,0,0,1,1.316-.291l8.616-.39-1.409,2.93-7.484-.29a8.8,8.8,0,0,1-2.309-.637,3.959,3.959,0,0,0-1.037-.189Zm1.463-2.951.236-.4,3.483-.1a12.845,12.845,0,0,0,2.019-.544,4.727,4.727,0,0,1,1.373-.3l8.564-.342-1.506,2.93-7.059-.3a6.948,6.948,0,0,1-2.829-.645,2.067,2.067,0,0,0-.751-.252Zm1.555-2.893.186-.385,2.216-.05a16.973,16.973,0,0,0,2.21-.239l1.646-.436a8.365,8.365,0,0,1,1.79-.338h7.44l-1.273,2.651-6.826-.242a7.639,7.639,0,0,1-2.305-.436,7.5,7.5,0,0,0-1.644-.483Zm7.579,20.4.186-.327,3.437-.1a6.375,6.375,0,0,0,1.745-.376,8.614,8.614,0,0,1,1.786-.426l8.568-.381-1.458,2.791-7.58-.235a3.833,3.833,0,0,1-1.554-.381,5.306,5.306,0,0,0-1.691-.52Zm1.554-2.932.237-.331,3.339-.048a7.49,7.49,0,0,0,1.646-.4,12.1,12.1,0,0,1,1.982-.494l8.475-.286-1.415,2.741-7.437-.236a5.2,5.2,0,0,1-1.132-.142l-1.787-.614a3.914,3.914,0,0,0-1.412-.144Zm1.6-2.934.136-.327,1.982.048a6.047,6.047,0,0,0,2.071-.241l1.552-.469a6.589,6.589,0,0,1,1.369-.236l8.521-.381-1.46,2.791h-.472l-7.343-.234a.4.4,0,0,0-.191-.049l-.655-.144-1.27-.424-.661-.19a.365.365,0,0,0-.191-.047Zm1.555-2.835.09-.282,3.255-.047a12.448,12.448,0,0,0,2.445-.619,9.966,9.966,0,0,1,1.173-.282l8.664-.377-1.5,2.835-6.83-.236a6.72,6.72,0,0,1-1.738-.234l-1.7-.57a1.625,1.625,0,0,0-.61-.093Zm1.507-3.031.186-.28,3.39-.1c.028,0,.719-.188,2.069-.567a5.528,5.528,0,0,1,1.46-.283l8.522-.381-1.46,2.794-6.024-.187c-.318,0-.785-.019-1.414-.051-.252-.032-.569-.08-.945-.142l-1.786-.563-.661-.144Zm1.457-2.835.189-.377,3.481-.1a1.76,1.76,0,0,0,.569-.09l1.884-.571a3.209,3.209,0,0,1,.988-.188l8.57-.379-1.458,2.791-7.724-.236-.706-.139-1.7-.617a4,4,0,0,0-.7-.1Zm1.555-2.932.136-.426,3.583-.046c.061,0,.738-.193,2.024-.568a7.469,7.469,0,0,1,1.551-.283l8.337-.377-1.415,2.789-7.82-.236c-.155-.036-.4-.1-.747-.189a12.005,12.005,0,0,0-2.071-.664Zm1.5-2.929.193-.429h2.728a5.169,5.169,0,0,0,1.413-.186l1.649-.475a23.175,23.175,0,0,1,4.993-.332h4.519l-1.272,2.651-6.22-.256a8.6,8.6,0,0,1-2.067-.207l-1.695-.615a2.691,2.691,0,0,0-.894-.15Z" transform="translate(-941.994 319.502)" fill="#f8811f"/>
            <path id="Path_18762" data-name="Path 18762" d="M1107.613-289.9l.14-.284,3.388-.092a9.843,9.843,0,0,0,2.215-.572,8.065,8.065,0,0,1,1.555-.33l21.323-.329a18.779,18.779,0,0,1-5.835,2.463,36.383,36.383,0,0,1-7.909.708,36.308,36.308,0,0,1-8.1-.708l-2.731-.663a3.23,3.23,0,0,0-.894-.1Zm1.555-2.932.186-.28,3.344-.1a27.9,27.9,0,0,1,3.815-.9l23.021-.423a16.606,16.606,0,0,1-2.591,2.506l-.233.187c-.033,0-.1.049-.191.144l-19.913-.188a6.308,6.308,0,0,1-1.934-.193l-1.459-.518a6.1,6.1,0,0,0-1.174-.144Zm1.555-2.884.141-.282,3.247-.094a1.837,1.837,0,0,0,.752-.146l2.165-.614a3.5,3.5,0,0,1,1.038-.14l23.489-.428a18.5,18.5,0,0,1-1.925,2.887l-22.318-.233a10.04,10.04,0,0,1-2.493-.664,2.444,2.444,0,0,0-.757-.192Zm6.87-14.613.19-.335,3.01-.044a9,9,0,0,0,2.118-.468,8.749,8.749,0,0,1,1.794-.428l10.166-.378a1.592,1.592,0,0,0-.237.76q0,.938,1.793,1.795a5.155,5.155,0,0,1,.658.28l-11.584-.235a12.354,12.354,0,0,1-3.854-.708,1.948,1.948,0,0,0-.616-.143Zm.092,2.839.147-.337,3.246-.045a16.189,16.189,0,0,0,2.214-.566,6.182,6.182,0,0,1,1.643-.33l12.48-.382a8.2,8.2,0,0,1,3.858,2.794l-16.713-.19a5.125,5.125,0,0,1-1.787-.378,5.448,5.448,0,0,0-1.931-.474Zm.8-5.821.142-.379,3.391-.093a4.954,4.954,0,0,0,.7-.094l2.025-.615a3.506,3.506,0,0,1,1.083-.14l20.625-.427-1.6,3.076-.942-.346a14.421,14.421,0,0,0-4.942-.838,6.815,6.815,0,0,0-3.906.949l-8.521-.192a9.785,9.785,0,0,1-2.968-.38,6.694,6.694,0,0,0-1.695-.519Zm1.651,8.748.136-.327,2.734-.095a8.782,8.782,0,0,0,1.648-.234l1.74-.477a3.094,3.094,0,0,1,.846-.146l14.177-.372a5.863,5.863,0,0,1,1.126,2.791l-15.348-.188a6.594,6.594,0,0,1-2.357-.521,8.437,8.437,0,0,0-1.457-.384Zm.467-11.633.188-.426,3.479-.093a2.5,2.5,0,0,0,.662-.146l1.884-.568a3.634,3.634,0,0,1,1.084-.133l20.109-.476-1.556,2.834-18.976-.189a3.346,3.346,0,0,1-1.034-.139l-1.84-.619a1.251,1.251,0,0,0-.374-.046Zm4,14.758.142-.286,3.438-.138a4.479,4.479,0,0,0,.472-.05l1.973-.566a3.782,3.782,0,0,1,1.13-.193l10.83-.376q.1,1.041.1,1.23a7.966,7.966,0,0,1-.185,1.559l-10.834-.189a8.29,8.29,0,0,1-2.869-.71,2.3,2.3,0,0,0-.8-.189Zm.236,2.833.144-.33,3.437-.048a20.59,20.59,0,0,0,2.026-.563,11.938,11.938,0,0,1,1.554-.33l10.5-.381a8.988,8.988,0,0,1-.948,2.837l-10.073-.236a7.436,7.436,0,0,1-2.448-.661,2.109,2.109,0,0,0-.66-.187Zm.051-20.644.187-.351h2.445a38.993,38.993,0,0,0,4.708-.661,53.15,53.15,0,0,1,9.089-.9,23.554,23.554,0,0,1,7.718,1.172l-.985,1.951-16.2-.2a4.177,4.177,0,0,1-1.5-.2l-1.273-.454a4.772,4.772,0,0,0-1.693-.3Z" transform="translate(-1018.317 321.159)" fill="#f8811f"/>
          </g>
        </g>
        <g id="Group_24566" data-name="Group 24566" transform="translate(134.112 0)">
          <path id="Path_18763" data-name="Path 18763" d="M1284.673-325.937h-.384a5.192,5.192,0,0,1-1.514,3.672,5.119,5.119,0,0,1-3.656,1.522,5.127,5.127,0,0,1-3.657-1.522,5.206,5.206,0,0,1-1.514-3.672,5.212,5.212,0,0,1,1.514-3.676,5.145,5.145,0,0,1,3.657-1.52,5.137,5.137,0,0,1,3.656,1.52,5.2,5.2,0,0,1,1.514,3.676h.774a5.959,5.959,0,0,0-5.945-5.972,5.956,5.956,0,0,0-5.943,5.972,5.955,5.955,0,0,0,5.943,5.969,5.957,5.957,0,0,0,5.945-5.969Z" transform="translate(-1273.175 331.909)" fill="#333"/>
          <path id="Path_18764" data-name="Path 18764" d="M1288.348-316.522a.4.4,0,0,1-.44.454.4.4,0,0,1-.451-.454v-5.366a.4.4,0,0,1,.451-.455h2.5a2.253,2.253,0,0,1,1.581.51,1.715,1.715,0,0,1,.52,1.314,1.585,1.585,0,0,1-1.267,1.676l1.041,2.134a.529.529,0,0,1,.042.2.391.391,0,0,1-.437.446.41.41,0,0,1-.4-.251l-1.176-2.418h-1.965Zm0-5v2h2.23c.7,0,1.043-.331,1.043-1s-.347-1.006-1.043-1.006Z" transform="translate(-1283.614 324.929)" fill="#333"/>
        </g>
      </g>
      <path id="Path_25553" data-name="Path 25553" d="M-73.763-5.991h-2.016V.126h-1.165V-5.991h-2.011v-1h5.192Zm1.473-.035a.677.677,0,0,1-.477-.184.609.609,0,0,1-.2-.467.624.624,0,0,1,.2-.472.667.667,0,0,1,.477-.189.688.688,0,0,1,.489.189.621.621,0,0,1,.2.472.612.612,0,0,1-.2.459A.683.683,0,0,1-72.291-6.026Zm.563,6.152h-1.135V-4.958h1.135Zm5.945,0h-1.135V-2.739q0-1.425-.993-1.425a1.078,1.078,0,0,0-.856.395,1.478,1.478,0,0,0-.338,1v2.9h-1.14V-4.958h1.14v.844h.02a1.782,1.782,0,0,1,1.625-.963,1.5,1.5,0,0,1,1.248.539,2.445,2.445,0,0,1,.431,1.557Zm7.726-.233A2.767,2.767,0,0,1-59.48.245a2.393,2.393,0,0,1-1.8-.708A2.527,2.527,0,0,1-61.966-2.3a2.782,2.782,0,0,1,.736-2.018,2.612,2.612,0,0,1,1.969-.762,2.839,2.839,0,0,1,1.209.243v1.072a1.814,1.814,0,0,0-1.116-.4,1.539,1.539,0,0,0-1.179.494,1.822,1.822,0,0,0-.46,1.293,1.738,1.738,0,0,0,.433,1.246,1.526,1.526,0,0,0,1.162.457,1.8,1.8,0,0,0,1.155-.442Zm4.971.233h-1.1V-.668h-.02a1.654,1.654,0,0,1-1.522.914,1.589,1.589,0,0,1-1.157-.407A1.435,1.435,0,0,1-57.3-1.239q0-1.44,1.634-1.678l1.488-.214q0-1.087-1.018-1.087a2.4,2.4,0,0,0-1.615.626V-4.6a3.482,3.482,0,0,1,1.83-.477,1.677,1.677,0,0,1,1.9,1.9Zm-1.1-2.5-1.052.149a1.651,1.651,0,0,0-.736.241.708.708,0,0,0-.247.618.681.681,0,0,0,.228.529.873.873,0,0,0,.609.206A1.116,1.116,0,0,0-54.521-1a1.323,1.323,0,0,0,.34-.931Zm.714-3.481h-.783L-55.037-6.9l-.768,1.048h-.758l1.1-1.629h.9Zm-1.59,7.706a.6.6,0,0,1-.428-.169.54.54,0,0,1-.179-.407.511.511,0,0,1,.183-.4.622.622,0,0,1,.423-.161.608.608,0,0,1,.426.161.52.52,0,0,1,.176.4.544.544,0,0,1-.176.407A.593.593,0,0,1-55.057,1.854Zm7.7-6.812-2.261,5.9q-.7,1.579-1.977,1.579a2.337,2.337,0,0,1-.6-.065V1.5a1.567,1.567,0,0,0,.489.089,1.009,1.009,0,0,0,.949-.636l.338-.834L-52.41-4.958h1.258l1.194,3.694q.02.07.088.367h.024q.024-.114.088-.357l1.253-3.7Zm6.146,2.731h-2.672v-.849h2.672Zm8.773-3.764h-2.016V.126h-1.165V-5.991h-2.011v-1h5.192ZM-27.694.126h-1.1V-.668h-.02a1.654,1.654,0,0,1-1.522.914,1.589,1.589,0,0,1-1.157-.407,1.435,1.435,0,0,1-.418-1.077q0-1.44,1.634-1.678l1.488-.214q0-1.087-1.018-1.087a2.4,2.4,0,0,0-1.615.626V-4.6a3.482,3.482,0,0,1,1.83-.477,1.677,1.677,0,0,1,1.9,1.9Zm-1.1-2.5-1.052.149a1.651,1.651,0,0,0-.736.241.708.708,0,0,0-.247.618.681.681,0,0,0,.228.529.873.873,0,0,0,.609.206A1.116,1.116,0,0,0-29.131-1a1.323,1.323,0,0,0,.34-.931Zm.714-3.481h-.783L-29.647-6.9l-.768,1.048h-.758l1.1-1.629h.9Zm-1.59,7.706a.6.6,0,0,1-.428-.169.54.54,0,0,1-.179-.407.511.511,0,0,1,.183-.4.622.622,0,0,1,.423-.161.608.608,0,0,1,.426.161.52.52,0,0,1,.176.4.544.544,0,0,1-.176.407A.593.593,0,0,1-29.666,1.854ZM-21.847.126h-1.135V-2.739q0-1.425-.993-1.425a1.078,1.078,0,0,0-.856.395,1.478,1.478,0,0,0-.338,1v2.9h-1.14V-4.958h1.14v.844h.02a1.782,1.782,0,0,1,1.625-.963,1.5,1.5,0,0,1,1.248.539,2.445,2.445,0,0,1,.431,1.557Zm8.769-6.117h-2.016V.126h-1.165V-5.991H-18.27v-1h5.192Zm2.04,6.117h-1.14V-4.958h1.14Zm.25-5.978h-.847L-12.917-7.48h1.047ZM-5.1.126H-6.233V-2.739q0-1.425-.993-1.425a1.078,1.078,0,0,0-.856.395,1.478,1.478,0,0,0-.338,1v2.9H-9.56V-4.958h1.14v.844h.02a1.782,1.782,0,0,1,1.625-.963,1.5,1.5,0,0,1,1.248.539A2.445,2.445,0,0,1-5.1-2.982ZM.74.126H-.4V-2.654q0-1.509-.993-1.509a1.034,1.034,0,0,0-.842.437A1.757,1.757,0,0,0-2.573-2.61V.126h-1.14V-7.4h1.14v3.287h.02A1.789,1.789,0,0,1-.929-5.077Q.74-5.077.74-3.007ZM7.512-2.227H4.84v-.849H7.512ZM16.677-.172A4.2,4.2,0,0,1,14.7.245a3.2,3.2,0,0,1-2.447-.978,3.6,3.6,0,0,1-.92-2.567A3.768,3.768,0,0,1,12.373-6.06a3.514,3.514,0,0,1,2.615-1.053,4.231,4.231,0,0,1,1.688.293v1.172a2.979,2.979,0,0,0-1.566-.427,2.439,2.439,0,0,0-1.847.74,2.741,2.741,0,0,0-.707,1.976,2.614,2.614,0,0,0,.661,1.874,2.282,2.282,0,0,0,1.737.7,3.076,3.076,0,0,0,1.722-.477Zm5.656.3H21.2V-2.654q0-1.509-.993-1.509a1.034,1.034,0,0,0-.842.437,1.757,1.757,0,0,0-.343,1.117V.126H17.88V-7.4h1.14v3.287h.02a1.789,1.789,0,0,1,1.625-.963q1.669,0,1.669,2.071Zm5.749,0H26.947v-.8h-.02a1.63,1.63,0,0,1-1.536.924q-1.776,0-1.776-2.165V-4.958H24.75v2.92q0,1.37,1.042,1.37a1.047,1.047,0,0,0,.829-.377,1.46,1.46,0,0,0,.325-.988V-4.958h1.135ZM33.9-4.958,31.64.941q-.7,1.579-1.977,1.579a2.337,2.337,0,0,1-.6-.065V1.5a1.567,1.567,0,0,0,.489.089A1.009,1.009,0,0,0,30.5.951l.338-.834L28.851-4.958h1.258L31.3-1.264q.02.07.088.367h.024q.024-.114.088-.357l1.253-3.7ZM38.823-2.1H35.408a1.476,1.476,0,0,0,.428,1.087,1.579,1.579,0,0,0,1.123.382,2.452,2.452,0,0,0,1.473-.487v.929a3.326,3.326,0,0,1-1.81.437,2.225,2.225,0,0,1-1.735-.693A2.8,2.8,0,0,1,34.258-2.4,2.733,2.733,0,0,1,34.95-4.33a2.249,2.249,0,0,1,1.72-.747,1.961,1.961,0,0,1,1.59.67,2.811,2.811,0,0,1,.563,1.862Zm-1.1-.814a1.5,1.5,0,0,0-.289-.966.958.958,0,0,0-.783-.345,1.094,1.094,0,0,0-.829.362,1.667,1.667,0,0,0-.418.948Zm.46-2.934H37.4L36.616-6.9l-.768,1.048H35.09l1.1-1.629h.9ZM44.367.126H43.232V-2.739q0-1.425-.993-1.425a1.078,1.078,0,0,0-.856.395,1.478,1.478,0,0,0-.338,1v2.9H39.9V-4.958h1.14v.844h.02a1.782,1.782,0,0,1,1.625-.963,1.5,1.5,0,0,1,1.248.539,2.445,2.445,0,0,1,.431,1.557Zm8.6,0H51.834V-2.739q0-1.425-.993-1.425a1.078,1.078,0,0,0-.856.395,1.478,1.478,0,0,0-.338,1v2.9h-1.14V-4.958h1.14v.844h.02a1.782,1.782,0,0,1,1.625-.963,1.5,1.5,0,0,1,1.248.539,2.445,2.445,0,0,1,.431,1.557Zm5.945-.407a2.464,2.464,0,0,1-2.774,2.8,4.08,4.08,0,0,1-1.708-.333V1.134a3.126,3.126,0,0,0,1.561.477A1.577,1.577,0,0,0,57.779-.172V-.728h-.02a1.833,1.833,0,0,1-1.693.973,1.82,1.82,0,0,1-1.475-.678,2.768,2.768,0,0,1-.56-1.82,3.243,3.243,0,0,1,.6-2.061,1.989,1.989,0,0,1,1.654-.765,1.589,1.589,0,0,1,1.473.824h.02v-.705h1.135ZM57.789-2.2v-.66a1.3,1.3,0,0,0-.35-.916,1.138,1.138,0,0,0-.873-.38,1.194,1.194,0,0,0-1.01.484,2.208,2.208,0,0,0-.365,1.353,1.9,1.9,0,0,0,.35,1.2,1.117,1.117,0,0,0,.927.449,1.2,1.2,0,0,0,.954-.429A1.633,1.633,0,0,0,57.789-2.2ZM64.845.126H63.71V-2.654q0-1.509-.993-1.509a1.034,1.034,0,0,0-.842.437,1.757,1.757,0,0,0-.343,1.117V.126h-1.14V-7.4h1.14v3.287h.02a1.789,1.789,0,0,1,1.625-.963q1.669,0,1.669,2.071ZM66.8-6.026a.677.677,0,0,1-.477-.184.609.609,0,0,1-.2-.467.624.624,0,0,1,.2-.472.667.667,0,0,1,.477-.189.688.688,0,0,1,.489.189.621.621,0,0,1,.2.472.612.612,0,0,1-.2.459A.683.683,0,0,1,66.8-6.026ZM67.36.126H66.225V-4.958H67.36ZM73.085-2.1H69.67A1.476,1.476,0,0,0,70.1-1.016a1.579,1.579,0,0,0,1.123.382,2.452,2.452,0,0,0,1.473-.487v.929a3.326,3.326,0,0,1-1.81.437,2.224,2.224,0,0,1-1.735-.693A2.8,2.8,0,0,1,68.52-2.4a2.733,2.733,0,0,1,.692-1.934,2.249,2.249,0,0,1,1.72-.747,1.961,1.961,0,0,1,1.59.67,2.811,2.811,0,0,1,.563,1.862Zm-1.1-.814a1.5,1.5,0,0,0-.289-.966.959.959,0,0,0-.783-.345,1.094,1.094,0,0,0-.829.362,1.667,1.667,0,0,0-.418.948Zm.445-2.934h-.783L70.864-6.9,70.1-5.852h-.758l1.1-1.629h.9ZM70.991,1.854a.6.6,0,0,1-.428-.169.54.54,0,0,1-.179-.407.511.511,0,0,1,.183-.4.622.622,0,0,1,.423-.161.608.608,0,0,1,.426.161.52.52,0,0,1,.176.4.544.544,0,0,1-.176.407A.593.593,0,0,1,70.991,1.854Zm4.33-2.478H75.3V2.465H74.166V-4.958H75.3v.894h.02a1.856,1.856,0,0,1,1.7-1.013,1.783,1.783,0,0,1,1.488.68,2.882,2.882,0,0,1,.533,1.827,3.2,3.2,0,0,1-.6,2.036A1.979,1.979,0,0,1,76.8.231,1.637,1.637,0,0,1,75.321-.623Zm-.029-2.006V-2a1.357,1.357,0,0,0,.35.943,1.144,1.144,0,0,0,.888.387,1.155,1.155,0,0,0,.991-.5,2.348,2.348,0,0,0,.36-1.393,1.849,1.849,0,0,0-.335-1.174,1.1,1.1,0,0,0-.908-.425,1.215,1.215,0,0,0-.976.437A1.634,1.634,0,0,0,75.292-2.629Z" transform="translate(229.955 61.48)" fill="#333"/>
    </g>
  </g>
</svg>
